%TF.GenerationSoftware,Altium Limited,Altium Designer,23.4.1 (23)*%
G04 Layer_Color=65535*
%FSLAX45Y45*%
%MOMM*%
%TF.SameCoordinates,1140DA37-B3DB-4B23-8321-DC1501029C55*%
%TF.FilePolarity,Positive*%
%TF.FileFunction,Legend,Top*%
%TF.Part,Single*%
G01*
G75*
%TA.AperFunction,NonConductor*%
%ADD38C,0.25400*%
%ADD47C,0.25000*%
%ADD48C,0.20000*%
%ADD49C,0.12700*%
G36*
X14337891Y4909480D02*
X14340204Y4909249D01*
X14342981Y4909017D01*
X14345988Y4908092D01*
X14349229Y4907166D01*
X14349460D01*
X14350386Y4906703D01*
X14351775Y4906241D01*
X14353394Y4905546D01*
X14355476Y4904621D01*
X14357559Y4903464D01*
X14362187Y4900687D01*
X14362418Y4900456D01*
X14363112Y4899993D01*
X14364268Y4899067D01*
X14365659Y4897910D01*
X14367278Y4896522D01*
X14369128Y4894902D01*
X14372832Y4890969D01*
X14373062Y4890737D01*
X14373524Y4890043D01*
X14374451Y4888886D01*
X14375607Y4887266D01*
X14376764Y4885647D01*
X14378152Y4883564D01*
X14380698Y4878705D01*
X14380930Y4878473D01*
X14381161Y4877548D01*
X14381854Y4876391D01*
X14382549Y4874771D01*
X14383244Y4872920D01*
X14383939Y4870837D01*
X14384462Y4869178D01*
X14384863Y4869680D01*
X14386252Y4871069D01*
X14386482Y4871300D01*
X14387408Y4872226D01*
X14389027Y4873151D01*
X14390880Y4874308D01*
X14391342Y4874540D01*
X14392499Y4875234D01*
X14394350Y4875928D01*
X14396664Y4876622D01*
X14396896D01*
X14397127Y4876854D01*
X14397821Y4877085D01*
X14398747Y4877316D01*
X14401060Y4878011D01*
X14404070Y4878936D01*
X14445490Y4889349D01*
Y4868061D01*
X14408466Y4858573D01*
X14408234D01*
X14407539Y4858342D01*
X14406847Y4858111D01*
X14405688Y4857879D01*
X14402911Y4856954D01*
X14400368Y4855797D01*
X14400134D01*
X14399672Y4855565D01*
X14398283Y4854871D01*
X14396664Y4853714D01*
X14394814Y4852326D01*
X14394350Y4851863D01*
X14393655Y4850937D01*
X14392731Y4849318D01*
X14391805Y4847467D01*
Y4847235D01*
X14391574Y4847004D01*
X14391112Y4845615D01*
X14390880Y4843533D01*
X14390648Y4840988D01*
Y4830575D01*
X14445490Y4812063D01*
Y4793089D01*
X14312900Y4838211D01*
Y4881481D01*
X14313132Y4883564D01*
X14313364Y4885878D01*
X14313824Y4888423D01*
X14315215Y4893745D01*
Y4893977D01*
X14315675Y4894902D01*
X14316139Y4896059D01*
X14316833Y4897679D01*
X14319147Y4901381D01*
X14320535Y4903001D01*
X14322156Y4904621D01*
X14322388Y4904852D01*
X14322850Y4905315D01*
X14324007Y4906009D01*
X14325163Y4906703D01*
X14326784Y4907629D01*
X14328867Y4908323D01*
X14330948Y4909017D01*
X14333495Y4909480D01*
X14333725D01*
X14334651D01*
X14336040Y4909712D01*
X14337891Y4909480D01*
D02*
G37*
G36*
X14334187Y4349380D02*
Y4349149D01*
X14333957Y4348917D01*
X14333495Y4347529D01*
X14332568Y4345446D01*
X14331644Y4342670D01*
X14330717Y4339430D01*
X14329791Y4335728D01*
X14329329Y4331794D01*
X14329099Y4327861D01*
Y4326472D01*
X14329329Y4324852D01*
X14329559Y4322770D01*
X14330023Y4320456D01*
X14330717Y4317911D01*
X14331644Y4314902D01*
X14332800Y4312126D01*
X14333031Y4311894D01*
X14333495Y4310737D01*
X14334419Y4309349D01*
X14335577Y4307498D01*
X14336964Y4305184D01*
X14338815Y4302639D01*
X14340900Y4300093D01*
X14343213Y4297317D01*
X14343443Y4297085D01*
X14344370Y4296160D01*
X14345758Y4294771D01*
X14347839Y4293151D01*
X14350154Y4291069D01*
X14352931Y4288986D01*
X14356171Y4286672D01*
X14359642Y4284358D01*
X14360104Y4284127D01*
X14361261Y4283433D01*
X14363344Y4282276D01*
X14365659Y4281119D01*
X14368666Y4279499D01*
X14372137Y4278111D01*
X14375581Y4276604D01*
X14374451Y4278111D01*
X14372832Y4279962D01*
X14371443Y4282276D01*
X14369823Y4284821D01*
X14368436Y4287367D01*
X14367046Y4290375D01*
X14365889Y4293614D01*
X14364732Y4297085D01*
X14364038Y4300556D01*
X14363576Y4304490D01*
X14363344Y4308423D01*
Y4309812D01*
X14363576Y4311432D01*
X14363808Y4313514D01*
X14364038Y4316059D01*
X14364732Y4318373D01*
X14365427Y4320919D01*
X14366583Y4323464D01*
X14366815Y4323695D01*
X14367046Y4324390D01*
X14367740Y4325547D01*
X14368666Y4326935D01*
X14370055Y4328555D01*
X14371443Y4330174D01*
X14373062Y4331563D01*
X14375145Y4332951D01*
X14375375Y4333183D01*
X14376071Y4333414D01*
X14377228Y4333877D01*
X14378847Y4334571D01*
X14380698Y4335265D01*
X14383012Y4335728D01*
X14385558Y4335959D01*
X14388335Y4336191D01*
X14388567D01*
X14389723D01*
X14391112D01*
X14393195Y4335959D01*
X14395740Y4335497D01*
X14398515Y4335034D01*
X14401524Y4334340D01*
X14404996Y4333183D01*
X14405458Y4332951D01*
X14406615Y4332488D01*
X14408466Y4331794D01*
X14410780Y4330869D01*
X14413556Y4329480D01*
X14416565Y4327861D01*
X14419572Y4326009D01*
X14422812Y4323927D01*
X14423276Y4323695D01*
X14424200Y4323001D01*
X14425589Y4321613D01*
X14427670Y4319993D01*
X14429755Y4318142D01*
X14432298Y4315828D01*
X14434845Y4313051D01*
X14437160Y4310275D01*
X14437390Y4310043D01*
X14438084Y4308886D01*
X14439241Y4307498D01*
X14440630Y4305415D01*
X14442018Y4302870D01*
X14443639Y4300093D01*
X14445026Y4296854D01*
X14446414Y4293614D01*
X14446646Y4293151D01*
X14446877Y4291994D01*
X14447340Y4290375D01*
X14448035Y4288061D01*
X14448727Y4285284D01*
X14449191Y4282045D01*
X14449422Y4278805D01*
X14449654Y4275334D01*
Y4273714D01*
X14449422Y4271863D01*
X14449191Y4269318D01*
X14448727Y4266773D01*
X14447803Y4263996D01*
X14446877Y4260988D01*
X14445490Y4258442D01*
X14445258Y4258211D01*
X14444795Y4257285D01*
X14443639Y4256128D01*
X14442480Y4254740D01*
X14440630Y4253352D01*
X14438547Y4251732D01*
X14436234Y4250344D01*
X14433456Y4248955D01*
X14432993D01*
X14432068Y4248492D01*
X14430217Y4248030D01*
X14427904Y4247798D01*
X14425127Y4247335D01*
X14421887Y4247104D01*
X14418184Y4246873D01*
X14414252Y4247104D01*
X14414018D01*
X14413788D01*
X14413094Y4247335D01*
X14412399D01*
X14410085Y4247567D01*
X14406847Y4248261D01*
X14403143Y4248955D01*
X14398979Y4249881D01*
X14394119Y4251269D01*
X14389029Y4252889D01*
X14388797D01*
X14388335Y4253120D01*
X14387408Y4253583D01*
X14386252Y4254046D01*
X14384631Y4254509D01*
X14383012Y4255203D01*
X14378847Y4256823D01*
X14373988Y4258905D01*
X14368896Y4261450D01*
X14363576Y4264227D01*
X14358253Y4267235D01*
X14358022D01*
X14357559Y4267698D01*
X14356865Y4268161D01*
X14355939Y4268855D01*
X14353163Y4270475D01*
X14349924Y4272789D01*
X14346220Y4275565D01*
X14342056Y4278805D01*
X14338123Y4282507D01*
X14334187Y4286210D01*
X14333957Y4286441D01*
X14333725Y4286672D01*
X14332568Y4288061D01*
X14330717Y4290143D01*
X14328403Y4292920D01*
X14325858Y4296391D01*
X14323312Y4300093D01*
X14320767Y4304258D01*
X14318452Y4308655D01*
Y4308886D01*
X14318222Y4309118D01*
X14317992Y4309812D01*
X14317528Y4310737D01*
X14316602Y4313051D01*
X14315677Y4316291D01*
X14314751Y4319993D01*
X14313826Y4324158D01*
X14313132Y4328555D01*
X14312900Y4333183D01*
Y4335497D01*
X14313132Y4338042D01*
X14313364Y4341050D01*
X14314056Y4344521D01*
X14314751Y4348223D01*
X14315907Y4351926D01*
X14317528Y4355165D01*
X14334187Y4349380D01*
D02*
G37*
G36*
X14332336Y4260293D02*
Y4223270D01*
X14447571Y4184165D01*
Y4165191D01*
X14332336Y4204296D01*
Y4167273D01*
X14314983Y4173289D01*
Y4266310D01*
X14332336Y4260293D01*
D02*
G37*
G36*
X14340204Y4146216D02*
X14339973Y4145985D01*
X14339742Y4145522D01*
X14339279Y4144828D01*
X14338585Y4143671D01*
X14337891Y4142051D01*
X14336964Y4140431D01*
X14336040Y4138349D01*
X14335114Y4136266D01*
X14334187Y4133721D01*
X14333495Y4130944D01*
X14331874Y4124928D01*
X14330717Y4117986D01*
X14330255Y4114515D01*
Y4108499D01*
X14330486Y4107111D01*
X14330717Y4105260D01*
X14330949Y4103177D01*
X14331412Y4100632D01*
X14332106Y4098086D01*
X14333725Y4092070D01*
X14334882Y4088831D01*
X14336272Y4085591D01*
X14337891Y4082120D01*
X14339973Y4078649D01*
X14342056Y4075178D01*
X14344601Y4071707D01*
X14344832Y4071476D01*
X14345296Y4071013D01*
X14345988Y4070088D01*
X14347147Y4068699D01*
X14348535Y4067311D01*
X14350386Y4065691D01*
X14352467Y4063609D01*
X14354552Y4061757D01*
X14357327Y4059675D01*
X14360104Y4057361D01*
X14363112Y4055278D01*
X14366351Y4053196D01*
X14370055Y4051113D01*
X14373756Y4049262D01*
X14377922Y4047411D01*
X14382088Y4045791D01*
X14382318D01*
X14383012Y4045560D01*
X14384401Y4045097D01*
X14386021Y4044634D01*
X14387872Y4044171D01*
X14390186Y4043709D01*
X14392731Y4043246D01*
X14395508Y4042783D01*
X14401524Y4042089D01*
X14407539D01*
X14410780Y4042552D01*
X14413556Y4043246D01*
X14416565Y4044171D01*
X14419110Y4045328D01*
X14419341D01*
X14419572Y4045791D01*
X14420267Y4046254D01*
X14421191Y4046948D01*
X14423276Y4049031D01*
X14424432Y4050188D01*
X14425589Y4051807D01*
X14426978Y4053659D01*
X14428134Y4055741D01*
X14429291Y4058287D01*
X14430217Y4060832D01*
X14431142Y4063840D01*
X14431837Y4067079D01*
X14432068Y4070550D01*
X14432298Y4074253D01*
Y4076798D01*
X14432068Y4077955D01*
Y4079575D01*
X14431606Y4083046D01*
X14431142Y4086979D01*
X14430217Y4091376D01*
X14428828Y4096004D01*
X14427209Y4100400D01*
X14393887Y4111507D01*
Y4083277D01*
X14376534Y4089293D01*
Y4136498D01*
X14437852Y4115672D01*
X14438084Y4115441D01*
X14438316Y4114515D01*
X14439011Y4113127D01*
X14439703Y4111507D01*
X14440630Y4109193D01*
X14441554Y4106416D01*
X14442712Y4103408D01*
X14443639Y4100169D01*
X14444795Y4096467D01*
X14445952Y4092764D01*
X14447803Y4084434D01*
X14449191Y4075410D01*
X14449422Y4071013D01*
X14449654Y4066385D01*
Y4065228D01*
X14449422Y4063609D01*
Y4061757D01*
X14449191Y4059443D01*
X14448727Y4056898D01*
X14448035Y4053890D01*
X14447340Y4050882D01*
X14446414Y4047642D01*
X14445258Y4044403D01*
X14443639Y4040932D01*
X14442018Y4037692D01*
X14439935Y4034684D01*
X14437390Y4031676D01*
X14434613Y4029131D01*
X14431374Y4026817D01*
X14431142Y4026586D01*
X14430447Y4026354D01*
X14429523Y4025891D01*
X14428134Y4025197D01*
X14426283Y4024503D01*
X14423969Y4023809D01*
X14421423Y4023115D01*
X14418416Y4022420D01*
X14415176Y4021958D01*
X14411475Y4021726D01*
X14407539Y4021495D01*
X14403143Y4021726D01*
X14398747Y4022189D01*
X14393657Y4022883D01*
X14388567Y4024272D01*
X14383012Y4025891D01*
X14382550Y4026123D01*
X14381624Y4026354D01*
X14380003Y4027048D01*
X14377922Y4027974D01*
X14375375Y4029131D01*
X14372368Y4030519D01*
X14368896Y4032370D01*
X14365195Y4034453D01*
X14361493Y4036767D01*
X14357327Y4039312D01*
X14353163Y4042320D01*
X14348997Y4045791D01*
X14344832Y4049262D01*
X14340668Y4053427D01*
X14336502Y4057824D01*
X14332800Y4062452D01*
X14332568Y4062683D01*
X14331874Y4063609D01*
X14330949Y4064997D01*
X14329791Y4067079D01*
X14328172Y4069393D01*
X14326552Y4072402D01*
X14324701Y4075641D01*
X14322850Y4079343D01*
X14320999Y4083277D01*
X14319148Y4087674D01*
X14317528Y4092070D01*
X14315907Y4096929D01*
X14314751Y4102020D01*
X14313826Y4107342D01*
X14313132Y4112664D01*
X14312900Y4118218D01*
Y4121688D01*
X14313132Y4123540D01*
X14313364Y4125622D01*
X14313594Y4128168D01*
X14313826Y4130713D01*
X14314751Y4136266D01*
X14316141Y4142051D01*
X14317992Y4147605D01*
X14320535Y4152927D01*
X14340204Y4146216D01*
D02*
G37*
G36*
X14447571Y3946755D02*
Y3927318D01*
X14314983Y3925235D01*
Y3945366D01*
X14418646Y3946292D01*
X14418878D01*
X14419572D01*
X14420499D01*
X14421825Y3946071D01*
X14420731Y3946755D01*
X14418416Y3948374D01*
X14314983Y4020569D01*
Y4040238D01*
X14447571Y3946755D01*
D02*
G37*
G36*
X14029388Y4893522D02*
Y4893290D01*
X14029156Y4893059D01*
X14028694Y4891670D01*
X14027768Y4889588D01*
X14026843Y4886811D01*
X14025917Y4883572D01*
X14024992Y4879869D01*
X14024529Y4875936D01*
X14024298Y4872002D01*
Y4870614D01*
X14024529Y4868994D01*
X14024760Y4866911D01*
X14025223Y4864597D01*
X14025917Y4862052D01*
X14026843Y4859044D01*
X14028000Y4856267D01*
X14028230Y4856036D01*
X14028694Y4854879D01*
X14029620Y4853490D01*
X14030777Y4851639D01*
X14032166Y4849325D01*
X14034016Y4846780D01*
X14036099Y4844235D01*
X14038412Y4841458D01*
X14038644Y4841227D01*
X14039571Y4840301D01*
X14040958Y4838913D01*
X14043040Y4837293D01*
X14045354Y4835210D01*
X14048131Y4833128D01*
X14051370Y4830814D01*
X14054842Y4828500D01*
X14055304Y4828268D01*
X14056461Y4827574D01*
X14058543Y4826417D01*
X14060858Y4825260D01*
X14063866Y4823641D01*
X14067337Y4822252D01*
X14070781Y4820746D01*
X14069650Y4822252D01*
X14068031Y4824103D01*
X14066643Y4826417D01*
X14065022Y4828963D01*
X14063635Y4831508D01*
X14062247Y4834516D01*
X14061089Y4837756D01*
X14059932Y4841227D01*
X14059238Y4844697D01*
X14058775Y4848631D01*
X14058543Y4852565D01*
Y4853953D01*
X14058775Y4855573D01*
X14059007Y4857656D01*
X14059238Y4860201D01*
X14059932Y4862515D01*
X14060626Y4865060D01*
X14061783Y4867605D01*
X14062015Y4867837D01*
X14062247Y4868531D01*
X14062939Y4869688D01*
X14063866Y4871076D01*
X14065254Y4872696D01*
X14066643Y4874316D01*
X14068262Y4875704D01*
X14070345Y4877093D01*
X14070576Y4877324D01*
X14071271Y4877555D01*
X14072427Y4878018D01*
X14074046Y4878712D01*
X14075899Y4879407D01*
X14078212Y4879869D01*
X14080759Y4880101D01*
X14083534Y4880332D01*
X14083766D01*
X14084923D01*
X14086311D01*
X14088394Y4880101D01*
X14090939Y4879638D01*
X14093716Y4879175D01*
X14096724Y4878481D01*
X14100195Y4877324D01*
X14100658Y4877093D01*
X14101814Y4876630D01*
X14103667Y4875936D01*
X14105980Y4875010D01*
X14108755Y4873622D01*
X14111765Y4872002D01*
X14114774Y4870151D01*
X14118011Y4868068D01*
X14118475Y4867837D01*
X14119402Y4867143D01*
X14120789Y4865754D01*
X14122871Y4864135D01*
X14124954Y4862283D01*
X14127499Y4859969D01*
X14130045Y4857193D01*
X14132359Y4854416D01*
X14132590Y4854185D01*
X14133284Y4853028D01*
X14134441Y4851639D01*
X14135829Y4849557D01*
X14137218Y4847011D01*
X14138838Y4844235D01*
X14140227Y4840995D01*
X14141614Y4837756D01*
X14141846Y4837293D01*
X14142078Y4836136D01*
X14142540Y4834516D01*
X14143234Y4832202D01*
X14143929Y4829425D01*
X14144391Y4826186D01*
X14144621Y4822946D01*
X14144855Y4819476D01*
Y4817856D01*
X14144621Y4816005D01*
X14144391Y4813459D01*
X14143929Y4810914D01*
X14143002Y4808137D01*
X14142078Y4805129D01*
X14140689Y4802584D01*
X14140457Y4802352D01*
X14139995Y4801427D01*
X14138838Y4800270D01*
X14137682Y4798881D01*
X14135829Y4797493D01*
X14133746Y4795873D01*
X14131433Y4794485D01*
X14128656Y4793097D01*
X14128194D01*
X14127267Y4792634D01*
X14125417Y4792171D01*
X14123103Y4791940D01*
X14120326Y4791477D01*
X14117087Y4791245D01*
X14113383Y4791014D01*
X14109451Y4791245D01*
X14109219D01*
X14108987D01*
X14108295Y4791477D01*
X14107599D01*
X14105286Y4791708D01*
X14102046Y4792402D01*
X14098344Y4793097D01*
X14094179Y4794022D01*
X14089319Y4795411D01*
X14084229Y4797030D01*
X14083997D01*
X14083534Y4797262D01*
X14082610Y4797724D01*
X14081451Y4798187D01*
X14079832Y4798650D01*
X14078212Y4799344D01*
X14074046Y4800964D01*
X14069188Y4803047D01*
X14064098Y4805592D01*
X14058775Y4808369D01*
X14053453Y4811377D01*
X14053223D01*
X14052759Y4811839D01*
X14052065Y4812302D01*
X14051138Y4812996D01*
X14048363Y4814616D01*
X14045123Y4816930D01*
X14041422Y4819707D01*
X14037256Y4822946D01*
X14033322Y4826649D01*
X14029388Y4830351D01*
X14029156Y4830582D01*
X14028925Y4830814D01*
X14027768Y4832202D01*
X14025917Y4834285D01*
X14023602Y4837061D01*
X14021059Y4840532D01*
X14018513Y4844235D01*
X14015967Y4848400D01*
X14013654Y4852796D01*
Y4853028D01*
X14013422Y4853259D01*
X14013191Y4853953D01*
X14012727Y4854879D01*
X14011803Y4857193D01*
X14010876Y4860432D01*
X14009950Y4864135D01*
X14009026Y4868300D01*
X14008331Y4872696D01*
X14008099Y4877324D01*
Y4879638D01*
X14008331Y4882183D01*
X14008563Y4885191D01*
X14009258Y4888662D01*
X14009950Y4892365D01*
X14011108Y4896067D01*
X14012727Y4899306D01*
X14029388Y4893522D01*
D02*
G37*
G36*
X14095335Y4762090D02*
Y4778750D01*
X14112459Y4772965D01*
Y4756305D01*
X14142770Y4746124D01*
Y4727381D01*
X14112459Y4737562D01*
Y4676937D01*
X14097418Y4682259D01*
X14097186Y4682490D01*
X14096954Y4682722D01*
X14096494Y4683416D01*
X14095798Y4684341D01*
X14093716Y4686655D01*
X14091170Y4689895D01*
X14087930Y4693597D01*
X14084460Y4697531D01*
X14080527Y4701927D01*
X14076593Y4706555D01*
X14076361Y4706787D01*
X14076131Y4707018D01*
X14075436Y4707712D01*
X14074741Y4708638D01*
X14072659Y4711183D01*
X14069650Y4714191D01*
X14066411Y4717894D01*
X14062709Y4722059D01*
X14058775Y4726224D01*
X14054610Y4730620D01*
X14054379Y4730852D01*
X14054147Y4731083D01*
X14053453Y4731777D01*
X14052759Y4732703D01*
X14050446Y4734785D01*
X14047668Y4737793D01*
X14044429Y4741033D01*
X14040727Y4744735D01*
X14036794Y4748669D01*
X14032628Y4752603D01*
X14032396Y4752834D01*
X14032166Y4753065D01*
X14030777Y4754454D01*
X14028464Y4756305D01*
X14025687Y4758850D01*
X14022215Y4761858D01*
X14018513Y4765098D01*
X14014348Y4768569D01*
X14010184Y4771808D01*
Y4791245D01*
X14095335Y4762090D01*
D02*
G37*
G36*
X14021289Y4700076D02*
X14021521Y4699845D01*
X14022215Y4699151D01*
X14023372Y4698225D01*
X14024992Y4696605D01*
X14026843Y4694986D01*
X14029156Y4692903D01*
X14031702Y4690820D01*
X14034479Y4688275D01*
X14034711Y4688044D01*
X14035867Y4687118D01*
X14037256Y4685730D01*
X14039339Y4683879D01*
X14041884Y4681796D01*
X14044659Y4679251D01*
X14047900Y4676474D01*
X14051370Y4673466D01*
X14051833Y4673003D01*
X14052991Y4672078D01*
X14054842Y4670458D01*
X14057387Y4668375D01*
X14060626Y4666061D01*
X14064098Y4663285D01*
X14067799Y4660276D01*
X14071965Y4657037D01*
X14072195D01*
X14072427Y4656574D01*
X14073816Y4655649D01*
X14076131Y4653797D01*
X14078906Y4651715D01*
X14082378Y4649170D01*
X14086079Y4646393D01*
X14090245Y4643385D01*
X14094641Y4640145D01*
X14094873D01*
X14095103Y4639682D01*
X14095798Y4639451D01*
X14096724Y4638757D01*
X14098807Y4637137D01*
X14101814Y4635286D01*
X14105518Y4632972D01*
X14109451Y4630195D01*
X14113615Y4627650D01*
X14118011Y4624873D01*
X14118243D01*
X14118475Y4624642D01*
X14119170Y4624179D01*
X14120094Y4623716D01*
X14122409Y4622328D01*
X14125417Y4620477D01*
X14129350Y4618394D01*
X14133516Y4616080D01*
X14137912Y4613766D01*
X14142770Y4611452D01*
Y4592247D01*
X14142540D01*
X14142078Y4592478D01*
X14141383Y4592941D01*
X14140457Y4593404D01*
X14137912Y4594561D01*
X14134441Y4596412D01*
X14130507Y4598263D01*
X14126111Y4600577D01*
X14117087Y4605899D01*
X14116855D01*
X14116624Y4606130D01*
X14115930Y4606593D01*
X14115004Y4607287D01*
X14112691Y4608676D01*
X14109682Y4610758D01*
X14105980Y4613072D01*
X14102046Y4615617D01*
X14097649Y4618626D01*
X14093253Y4621634D01*
X14093022D01*
X14092790Y4622096D01*
X14092096Y4622559D01*
X14091170Y4623022D01*
X14088857Y4624873D01*
X14086079Y4626956D01*
X14082610Y4629501D01*
X14078906Y4632278D01*
X14071039Y4638525D01*
X14070808D01*
X14070576Y4638988D01*
X14069188Y4639914D01*
X14067105Y4641534D01*
X14064560Y4643616D01*
X14061552Y4646161D01*
X14058311Y4648707D01*
X14051370Y4654492D01*
X14050908Y4654954D01*
X14049751Y4655880D01*
X14048131Y4657268D01*
X14046049Y4659119D01*
X14043503Y4661202D01*
X14040727Y4663516D01*
X14035403Y4668144D01*
X14035173Y4668375D01*
X14034248Y4669069D01*
X14033092Y4670226D01*
X14031702Y4671615D01*
X14030315Y4673003D01*
X14029156Y4674391D01*
X14028000Y4675780D01*
X14027306Y4676705D01*
Y4611915D01*
X14010184Y4617931D01*
Y4704010D01*
X14021289Y4700076D01*
D02*
G37*
G36*
X14027538Y4597569D02*
Y4547125D01*
X14068494Y4533241D01*
Y4579983D01*
X14085847Y4573966D01*
Y4527225D01*
X14142770Y4508019D01*
Y4489045D01*
X14010184Y4534167D01*
Y4603585D01*
X14027538Y4597569D01*
D02*
G37*
G36*
X14036099Y4494367D02*
X14038644Y4493904D01*
X14041652Y4493210D01*
X14044659Y4492284D01*
X14044891D01*
X14046049Y4491822D01*
X14047437Y4491359D01*
X14049287Y4490433D01*
X14051602Y4489508D01*
X14053915Y4488351D01*
X14059007Y4485574D01*
X14059238Y4485343D01*
X14060164Y4484880D01*
X14061320Y4483954D01*
X14062939Y4482797D01*
X14064792Y4481409D01*
X14066643Y4479789D01*
X14071039Y4475855D01*
X14071271Y4475624D01*
X14071965Y4474930D01*
X14073122Y4473773D01*
X14074510Y4472153D01*
X14076361Y4470302D01*
X14078212Y4467988D01*
X14080064Y4465674D01*
X14082146Y4462897D01*
X14082378Y4462666D01*
X14083072Y4461509D01*
X14083997Y4460121D01*
X14085387Y4458038D01*
X14086774Y4455724D01*
X14088625Y4452947D01*
X14090475Y4449708D01*
X14092326Y4446468D01*
Y4446237D01*
X14092558Y4446006D01*
X14093253Y4444617D01*
X14094641Y4442535D01*
X14096030Y4439989D01*
X14097649Y4436981D01*
X14099501Y4433973D01*
X14101352Y4430965D01*
X14103203Y4427957D01*
X14103435Y4427725D01*
X14103897Y4426800D01*
X14104823Y4425412D01*
X14105980Y4423792D01*
X14108525Y4419858D01*
X14110146Y4417776D01*
X14111533Y4415924D01*
X14111765Y4415693D01*
X14112227Y4415230D01*
X14112921Y4414305D01*
X14113847Y4413379D01*
X14116161Y4411065D01*
X14118938Y4408751D01*
X14119170D01*
X14119632Y4408288D01*
X14120326Y4407826D01*
X14121252Y4407363D01*
X14123334Y4406206D01*
X14125648Y4405280D01*
Y4469608D01*
X14142770Y4463823D01*
Y4380290D01*
X14134673Y4383066D01*
X14134210Y4383298D01*
X14133284Y4383529D01*
X14131664Y4384223D01*
X14129582Y4384918D01*
X14127267Y4386075D01*
X14124722Y4387232D01*
X14119632Y4390008D01*
X14119402Y4390240D01*
X14118475Y4390702D01*
X14117087Y4391628D01*
X14115466Y4392785D01*
X14113615Y4394405D01*
X14111533Y4396256D01*
X14109219Y4398107D01*
X14107137Y4400421D01*
X14106905Y4400652D01*
X14106210Y4401578D01*
X14104823Y4402966D01*
X14103435Y4404586D01*
X14101582Y4406900D01*
X14099731Y4409445D01*
X14097649Y4412222D01*
X14095567Y4415462D01*
X14095335Y4415924D01*
X14094641Y4417081D01*
X14093253Y4418932D01*
X14091634Y4421709D01*
X14089783Y4424949D01*
X14087468Y4428882D01*
X14084923Y4433510D01*
X14082146Y4438601D01*
X14081915Y4438832D01*
X14081451Y4439758D01*
X14080527Y4441146D01*
X14079369Y4442766D01*
X14077982Y4444617D01*
X14076361Y4446700D01*
X14073122Y4451328D01*
X14072890Y4451559D01*
X14072427Y4452253D01*
X14071503Y4453410D01*
X14070345Y4454799D01*
X14067567Y4458269D01*
X14064330Y4461509D01*
X14064098Y4461740D01*
X14063635Y4462203D01*
X14062709Y4463129D01*
X14061552Y4464054D01*
X14058775Y4466368D01*
X14055536Y4468451D01*
X14055304Y4468682D01*
X14054842Y4468914D01*
X14053915Y4469376D01*
X14052759Y4470071D01*
X14051138Y4470765D01*
X14049519Y4471459D01*
X14045818Y4472847D01*
X14045586D01*
X14044891Y4473079D01*
X14043967Y4473310D01*
X14042578Y4473773D01*
X14039571Y4474236D01*
X14036562D01*
X14036330D01*
X14035867D01*
X14035173Y4474004D01*
X14034248Y4473773D01*
X14031934Y4473079D01*
X14029851Y4471922D01*
X14029620D01*
X14029388Y4471690D01*
X14028230Y4470533D01*
X14026843Y4468914D01*
X14025687Y4466368D01*
Y4466137D01*
X14025455Y4465674D01*
X14025223Y4464980D01*
X14024992Y4464054D01*
X14024529Y4461509D01*
X14024298Y4458269D01*
Y4456881D01*
X14024529Y4455724D01*
X14024760Y4453179D01*
X14025455Y4449939D01*
Y4449708D01*
X14025687Y4449245D01*
X14025917Y4448320D01*
X14026379Y4447394D01*
X14027306Y4444617D01*
X14028694Y4441378D01*
Y4441146D01*
X14028925Y4440684D01*
X14029388Y4439758D01*
X14029851Y4438601D01*
X14031471Y4435824D01*
X14033322Y4432353D01*
X14033553Y4432122D01*
X14033784Y4431659D01*
X14034479Y4430502D01*
X14035173Y4429114D01*
X14036099Y4427494D01*
X14037256Y4425412D01*
X14038644Y4422866D01*
X14040031Y4420089D01*
X14021751Y4426568D01*
X14021521Y4427031D01*
X14020595Y4428188D01*
X14019438Y4430039D01*
X14017819Y4432353D01*
X14016199Y4435130D01*
X14014578Y4438138D01*
X14012959Y4441378D01*
X14011571Y4444849D01*
X14011340Y4445311D01*
X14011108Y4446468D01*
X14010414Y4448320D01*
X14009720Y4450865D01*
X14009258Y4454104D01*
X14008563Y4457575D01*
X14008331Y4461509D01*
X14008099Y4465674D01*
Y4467062D01*
X14008331Y4468682D01*
Y4470533D01*
X14008794Y4472847D01*
X14009258Y4475161D01*
X14009720Y4477707D01*
X14010645Y4480021D01*
Y4480252D01*
X14011108Y4481177D01*
X14011571Y4482334D01*
X14012495Y4483723D01*
X14013422Y4485343D01*
X14014578Y4486962D01*
X14016199Y4488813D01*
X14017819Y4490202D01*
X14018050Y4490433D01*
X14018744Y4490896D01*
X14019670Y4491359D01*
X14021059Y4492053D01*
X14022678Y4492979D01*
X14024529Y4493673D01*
X14026843Y4494136D01*
X14029388Y4494598D01*
X14029620D01*
X14030545D01*
X14031934D01*
X14033784D01*
X14036099Y4494367D01*
D02*
G37*
G36*
X14035635Y4389777D02*
X14038181Y4389314D01*
X14040727Y4388620D01*
X14040958D01*
X14041884Y4388157D01*
X14043272Y4387694D01*
X14045123Y4386769D01*
X14047206Y4385612D01*
X14049519Y4384223D01*
X14052296Y4382604D01*
X14055074Y4380521D01*
X14057851Y4378207D01*
X14060858Y4375430D01*
X14063635Y4372422D01*
X14066411Y4368951D01*
X14068958Y4365249D01*
X14071271Y4361084D01*
X14073083Y4356553D01*
X14073122Y4356688D01*
X14073816Y4358307D01*
X14075436Y4362010D01*
Y4362241D01*
X14075899Y4362935D01*
X14076361Y4363861D01*
X14077287Y4365018D01*
X14079369Y4367563D01*
X14082146Y4369877D01*
X14082378Y4370108D01*
X14082840Y4370340D01*
X14083766Y4370803D01*
X14084923Y4371497D01*
X14086311Y4371960D01*
X14088162Y4372654D01*
X14090013Y4373116D01*
X14092096Y4373348D01*
X14092326D01*
X14093022D01*
X14094179D01*
X14095798D01*
X14097418Y4373116D01*
X14099501Y4372885D01*
X14101814Y4372191D01*
X14104359Y4371497D01*
X14104823Y4371265D01*
X14105980Y4371034D01*
X14107599Y4370340D01*
X14109914Y4369183D01*
X14112459Y4368026D01*
X14115234Y4366406D01*
X14118243Y4364555D01*
X14121021Y4362472D01*
X14121252Y4362241D01*
X14122177Y4361315D01*
X14123566Y4360158D01*
X14125417Y4358539D01*
X14127267Y4356456D01*
X14129582Y4353911D01*
X14131664Y4351365D01*
X14133746Y4348357D01*
X14133978Y4347895D01*
X14134673Y4346969D01*
X14135599Y4345349D01*
X14136755Y4343035D01*
X14138142Y4340490D01*
X14139532Y4337482D01*
X14140919Y4334011D01*
X14142078Y4330540D01*
Y4330077D01*
X14142540Y4328920D01*
X14143002Y4326838D01*
X14143465Y4324292D01*
X14143929Y4321284D01*
X14144391Y4318045D01*
X14144621Y4314342D01*
X14144855Y4310409D01*
Y4308558D01*
X14144621Y4307401D01*
Y4305781D01*
X14144391Y4303930D01*
X14143929Y4299765D01*
X14143002Y4295137D01*
X14141614Y4290509D01*
X14139763Y4285881D01*
X14137218Y4281947D01*
X14118475Y4288195D01*
Y4288426D01*
X14118938Y4288658D01*
X14119402Y4289352D01*
X14120094Y4290277D01*
X14120789Y4291434D01*
X14121713Y4292823D01*
X14123566Y4296294D01*
X14125417Y4300459D01*
X14127037Y4305318D01*
X14128194Y4310640D01*
X14128426Y4313417D01*
X14128656Y4316425D01*
Y4318739D01*
X14128426Y4320359D01*
Y4322210D01*
X14127962Y4324292D01*
X14127267Y4328457D01*
Y4328689D01*
X14127037Y4329383D01*
X14126575Y4330540D01*
X14126111Y4331928D01*
X14124722Y4335399D01*
X14122639Y4338870D01*
X14122409Y4339102D01*
X14122177Y4339564D01*
X14121483Y4340490D01*
X14120557Y4341647D01*
X14118243Y4344192D01*
X14115466Y4346738D01*
X14115234Y4346969D01*
X14114774Y4347432D01*
X14113847Y4347895D01*
X14112691Y4348820D01*
X14111070Y4349514D01*
X14109451Y4350440D01*
X14105748Y4352060D01*
X14105518D01*
X14104823Y4352291D01*
X14103667Y4352522D01*
X14102046Y4352754D01*
X14100426D01*
X14098344D01*
X14096262Y4352522D01*
X14093947Y4351828D01*
X14091866Y4350671D01*
X14089783Y4349051D01*
X14087700Y4346969D01*
X14086079Y4344424D01*
X14084460Y4340953D01*
X14083302Y4336788D01*
X14082610Y4331928D01*
X14082378Y4328920D01*
Y4313417D01*
X14066180Y4318970D01*
Y4332391D01*
X14065948Y4333779D01*
X14065717Y4335862D01*
X14065486Y4338176D01*
X14065022Y4340953D01*
X14064330Y4343729D01*
X14063403Y4346969D01*
X14062247Y4349977D01*
X14060858Y4353217D01*
X14059007Y4356456D01*
X14056924Y4359233D01*
X14054610Y4362010D01*
X14051602Y4364555D01*
X14048363Y4366637D01*
X14044429Y4368257D01*
X14044197D01*
X14043503Y4368489D01*
X14042578Y4368720D01*
X14041190Y4368951D01*
X14039801Y4369183D01*
X14037950D01*
X14036330D01*
X14034248Y4368951D01*
X14032396Y4368489D01*
X14030545Y4367563D01*
X14028925Y4366406D01*
X14027538Y4364555D01*
X14026149Y4362472D01*
X14025223Y4359927D01*
X14024529Y4356688D01*
X14024298Y4352754D01*
Y4351365D01*
X14024529Y4350440D01*
Y4349283D01*
X14024760Y4347663D01*
X14025455Y4344192D01*
X14026611Y4339564D01*
X14028230Y4334474D01*
X14030545Y4328689D01*
X14033553Y4322210D01*
X14016431Y4327995D01*
Y4328226D01*
X14015967Y4328689D01*
X14015736Y4329614D01*
X14015042Y4330771D01*
X14014578Y4332391D01*
X14013885Y4334242D01*
X14012959Y4336093D01*
X14012265Y4338407D01*
X14010645Y4343498D01*
X14009488Y4349283D01*
X14008563Y4355531D01*
X14008099Y4362010D01*
Y4363398D01*
X14008331Y4365018D01*
Y4366869D01*
X14008794Y4369183D01*
X14009258Y4371497D01*
X14009720Y4374042D01*
X14010645Y4376356D01*
Y4376587D01*
X14011108Y4377282D01*
X14011571Y4378439D01*
X14012265Y4379827D01*
X14014348Y4383066D01*
X14015736Y4384686D01*
X14017355Y4386075D01*
X14017587Y4386306D01*
X14018050Y4386537D01*
X14018976Y4387232D01*
X14020132Y4387926D01*
X14021751Y4388620D01*
X14023372Y4389314D01*
X14025455Y4389777D01*
X14027538Y4390240D01*
X14027768D01*
X14028694D01*
X14029851D01*
X14031471D01*
X14033322D01*
X14035635Y4389777D01*
D02*
G37*
G36*
X14142770Y4252560D02*
Y4233586D01*
X14054610Y4263436D01*
X14054379D01*
X14054147Y4263667D01*
X14052759Y4264130D01*
X14050676Y4264824D01*
X14047668Y4265981D01*
X14044429Y4267369D01*
X14042445Y4268141D01*
X14043735Y4267138D01*
X14142770Y4189852D01*
Y4179902D01*
X14044278Y4169341D01*
X14046280Y4168796D01*
X14048825Y4167870D01*
X14051602Y4166944D01*
X14054842Y4165787D01*
X14142770Y4135938D01*
Y4116963D01*
X14010184Y4162085D01*
Y4185687D01*
X14101352Y4194712D01*
X14101814D01*
X14102972Y4194943D01*
X14104823D01*
X14107137Y4195174D01*
X14111765Y4195406D01*
X14112459D01*
X14110376Y4196794D01*
X14107831Y4198645D01*
X14105518Y4200265D01*
X14102972Y4202116D01*
X14100890Y4203736D01*
X14010184Y4275468D01*
Y4297682D01*
X14142770Y4252560D01*
D02*
G37*
G36*
X14027538Y4137326D02*
Y4100303D01*
X14142770Y4061197D01*
Y4042223D01*
X14027538Y4081329D01*
Y4044306D01*
X14010184Y4050322D01*
Y4143342D01*
X14027538Y4137326D01*
D02*
G37*
G36*
X14033322Y4026257D02*
Y4026025D01*
X14033092Y4025794D01*
X14032628Y4025100D01*
X14032166Y4024174D01*
X14031471Y4023017D01*
X14030777Y4021629D01*
X14029388Y4018389D01*
X14028000Y4014224D01*
X14026611Y4009365D01*
X14025687Y4003812D01*
X14025455Y3997564D01*
Y3995713D01*
X14025687Y3994556D01*
Y3992936D01*
X14025917Y3991316D01*
X14026611Y3987614D01*
Y3987383D01*
X14026843Y3986688D01*
X14027074Y3985763D01*
X14027306Y3984606D01*
X14028230Y3981829D01*
X14029620Y3978590D01*
Y3978358D01*
X14030083Y3977896D01*
X14030545Y3977201D01*
X14031007Y3976044D01*
X14032858Y3973730D01*
X14035173Y3970954D01*
X14035403Y3970722D01*
X14035635Y3970491D01*
X14036330Y3969797D01*
X14037256Y3969103D01*
X14039801Y3967483D01*
X14043040Y3966094D01*
X14043272D01*
X14043735Y3965863D01*
X14044659Y3965632D01*
X14045818Y3965400D01*
X14048363Y3965169D01*
X14050908D01*
X14051138D01*
X14051370Y3965400D01*
X14052759Y3965632D01*
X14054842Y3966557D01*
X14056924Y3967946D01*
X14057156Y3968177D01*
X14057387Y3968408D01*
X14058543Y3969797D01*
X14060394Y3971879D01*
X14062479Y3974656D01*
X14062709Y3974887D01*
X14062939Y3975350D01*
X14063635Y3976276D01*
X14064330Y3977433D01*
X14065254Y3978821D01*
X14066180Y3980441D01*
X14068494Y3984375D01*
X14068726Y3984606D01*
X14068958Y3985300D01*
X14069650Y3986457D01*
X14070576Y3987845D01*
X14072890Y3991316D01*
X14075667Y3995019D01*
X14075899Y3995250D01*
X14076361Y3995944D01*
X14077055Y3996870D01*
X14078212Y3998027D01*
X14080989Y4000804D01*
X14084460Y4003349D01*
X14084691Y4003580D01*
X14085155Y4003812D01*
X14086311Y4004506D01*
X14087468Y4005200D01*
X14089088Y4005894D01*
X14090939Y4006588D01*
X14093022Y4007051D01*
X14095103Y4007514D01*
X14095335D01*
X14096030D01*
X14097418Y4007745D01*
X14099039D01*
X14100890Y4007514D01*
X14103203Y4007283D01*
X14105748Y4006588D01*
X14108525Y4005894D01*
X14108987Y4005663D01*
X14110146Y4005200D01*
X14111996Y4004506D01*
X14114310Y4003580D01*
X14117087Y4002192D01*
X14119862Y4000341D01*
X14122639Y3998490D01*
X14125417Y3996176D01*
X14125648Y3995944D01*
X14126575Y3995019D01*
X14127731Y3993862D01*
X14129350Y3992011D01*
X14131203Y3989928D01*
X14133054Y3987383D01*
X14134904Y3984606D01*
X14136755Y3981598D01*
X14136986Y3981135D01*
X14137450Y3980209D01*
X14138142Y3978590D01*
X14139069Y3976507D01*
X14140227Y3973730D01*
X14141151Y3970954D01*
X14142310Y3967714D01*
X14143002Y3964243D01*
Y3963780D01*
X14143234Y3962624D01*
X14143465Y3960772D01*
X14143929Y3958458D01*
X14144160Y3955682D01*
X14144621Y3952442D01*
X14144855Y3945732D01*
Y3943418D01*
X14144621Y3940872D01*
X14144160Y3937864D01*
Y3937170D01*
X14143929Y3936245D01*
X14143697Y3935319D01*
X14143465Y3932311D01*
X14142770Y3929071D01*
Y3928840D01*
X14142540Y3928377D01*
Y3927452D01*
X14142310Y3926295D01*
X14141614Y3923749D01*
X14140689Y3920741D01*
Y3920510D01*
X14140457Y3920047D01*
X14139995Y3919353D01*
X14139532Y3918659D01*
X14138374Y3916576D01*
X14136755Y3914494D01*
X14115930Y3921435D01*
X14116161Y3921667D01*
X14116393Y3922361D01*
X14117087Y3923287D01*
X14117781Y3924444D01*
X14119632Y3927220D01*
X14121252Y3929766D01*
Y3929997D01*
X14121483Y3930460D01*
X14121947Y3931154D01*
X14122409Y3932080D01*
X14123566Y3934393D01*
X14124722Y3937170D01*
Y3937402D01*
X14124954Y3937864D01*
X14125185Y3938790D01*
X14125417Y3939716D01*
X14126111Y3942492D01*
X14126805Y3945732D01*
Y3946426D01*
X14127037Y3947352D01*
Y3948508D01*
X14127267Y3951054D01*
X14127499Y3953831D01*
Y3956144D01*
X14127267Y3958458D01*
X14126805Y3961467D01*
X14126341Y3964937D01*
X14125648Y3968408D01*
X14124490Y3971879D01*
X14122871Y3975119D01*
X14122639Y3975582D01*
X14121947Y3976507D01*
X14121021Y3977664D01*
X14119402Y3979515D01*
X14117549Y3981135D01*
X14115234Y3982986D01*
X14112459Y3984606D01*
X14109451Y3985994D01*
X14109219D01*
X14108755Y3986226D01*
X14107831Y3986457D01*
X14106674Y3986688D01*
X14104129D01*
X14101352Y3986457D01*
X14101120D01*
X14100658Y3986226D01*
X14100195Y3985994D01*
X14099269Y3985763D01*
X14097186Y3984606D01*
X14094873Y3982755D01*
X14094641Y3982523D01*
X14094411Y3982292D01*
X14093022Y3980904D01*
X14091170Y3978590D01*
X14089088Y3975813D01*
X14088857Y3975582D01*
X14088625Y3975119D01*
X14087930Y3974193D01*
X14087238Y3973036D01*
X14086311Y3971648D01*
X14085387Y3970028D01*
X14083997Y3967946D01*
X14082840Y3965863D01*
X14082610Y3965632D01*
X14082378Y3964937D01*
X14081683Y3964012D01*
X14080759Y3962624D01*
X14078444Y3959384D01*
X14075899Y3955682D01*
X14075667Y3955450D01*
X14075204Y3954988D01*
X14074510Y3954062D01*
X14073586Y3952905D01*
X14070808Y3950360D01*
X14067799Y3947814D01*
X14067567Y3947583D01*
X14067105Y3947352D01*
X14066180Y3946889D01*
X14064792Y3946195D01*
X14063403Y3945500D01*
X14061783Y3945038D01*
X14057851Y3944112D01*
X14057619D01*
X14056924D01*
X14055536D01*
X14053915D01*
X14052065Y3944343D01*
X14049751Y3944575D01*
X14047206Y3945269D01*
X14044429Y3945963D01*
X14043967Y3946195D01*
X14042809Y3946657D01*
X14041190Y3947352D01*
X14038875Y3948508D01*
X14036330Y3949665D01*
X14033784Y3951517D01*
X14031007Y3953368D01*
X14028230Y3955682D01*
X14028000Y3955913D01*
X14027074Y3956839D01*
X14025687Y3958227D01*
X14024298Y3959847D01*
X14022446Y3961929D01*
X14020595Y3964475D01*
X14018744Y3967251D01*
X14016893Y3970028D01*
X14016663Y3970491D01*
X14016199Y3971416D01*
X14015273Y3973036D01*
X14014348Y3975119D01*
X14013422Y3977664D01*
X14012265Y3980672D01*
X14011340Y3983912D01*
X14010414Y3987151D01*
Y3987614D01*
X14009950Y3988771D01*
X14009720Y3990622D01*
X14009258Y3992936D01*
X14008794Y3995481D01*
X14008563Y3998490D01*
X14008099Y4004969D01*
Y4008208D01*
X14008331Y4009828D01*
Y4011679D01*
X14008794Y4015844D01*
X14009488Y4020241D01*
X14010414Y4025100D01*
X14011803Y4029265D01*
X14012727Y4031348D01*
X14013654Y4032967D01*
X14033322Y4026257D01*
D02*
G37*
%LPC*%
G36*
X14345064Y4888192D02*
X14342519D01*
X14340204Y4887961D01*
X14337659Y4887266D01*
X14335576Y4885878D01*
X14335345Y4885647D01*
X14334651Y4884952D01*
X14333957Y4884027D01*
X14332800Y4882407D01*
X14331874Y4880093D01*
X14331180Y4877316D01*
X14330486Y4873845D01*
X14330254Y4869680D01*
Y4851169D01*
X14373294Y4836591D01*
Y4856722D01*
X14373062Y4858111D01*
Y4859730D01*
X14372598Y4861582D01*
X14371906Y4865284D01*
Y4865515D01*
X14371674Y4866209D01*
X14371211Y4867135D01*
X14370747Y4868292D01*
X14369360Y4871300D01*
X14367278Y4874540D01*
X14367046Y4874771D01*
X14366815Y4875234D01*
X14366119Y4875928D01*
X14365195Y4877085D01*
X14362881Y4879399D01*
X14360104Y4881944D01*
X14359872Y4882176D01*
X14359410Y4882407D01*
X14358484Y4883101D01*
X14357327Y4883795D01*
X14355708Y4884721D01*
X14354088Y4885647D01*
X14350386Y4887035D01*
X14349924Y4887266D01*
X14348766Y4887498D01*
X14347147Y4887729D01*
X14345064Y4888192D01*
D02*
G37*
G36*
X14395508Y4315828D02*
X14395276D01*
X14394582D01*
X14393657D01*
X14392500D01*
X14389723Y4315365D01*
X14386946Y4314208D01*
X14386716D01*
X14386252Y4313977D01*
X14384863Y4313051D01*
X14383244Y4311200D01*
X14381624Y4308886D01*
Y4308655D01*
X14381393Y4308192D01*
X14380930Y4307498D01*
X14380467Y4306341D01*
X14380235Y4304953D01*
X14379773Y4303333D01*
X14379541Y4299630D01*
Y4297779D01*
X14379773Y4296391D01*
X14380003Y4295003D01*
X14380467Y4293151D01*
X14381624Y4289449D01*
Y4289218D01*
X14381854Y4288524D01*
X14382318Y4287598D01*
X14383012Y4286441D01*
X14384631Y4283433D01*
X14386716Y4280193D01*
X14386946Y4279962D01*
X14387177Y4279499D01*
X14387872Y4278805D01*
X14388797Y4277648D01*
X14391344Y4275334D01*
X14394351Y4272557D01*
X14394582Y4272326D01*
X14395045Y4272095D01*
X14395970Y4271400D01*
X14397127Y4270706D01*
X14400136Y4269086D01*
X14403606Y4267698D01*
X14403838D01*
X14404762Y4267467D01*
X14405920Y4267004D01*
X14407539Y4266541D01*
X14409390Y4266310D01*
X14411475Y4265847D01*
X14415639Y4265384D01*
X14415871D01*
X14416565D01*
X14417490D01*
X14418878Y4265616D01*
X14421887Y4266078D01*
X14425127Y4267235D01*
X14425357D01*
X14425819Y4267698D01*
X14426514Y4267929D01*
X14427440Y4268624D01*
X14429523Y4270243D01*
X14431374Y4272557D01*
Y4272789D01*
X14431606Y4273252D01*
X14432068Y4273946D01*
X14432298Y4274871D01*
X14432762Y4276260D01*
X14433224Y4277648D01*
X14433456Y4281350D01*
Y4283201D01*
X14433224Y4284590D01*
X14432762Y4287829D01*
X14431606Y4291532D01*
Y4291763D01*
X14431142Y4292457D01*
X14430911Y4293383D01*
X14430217Y4294540D01*
X14428596Y4297317D01*
X14426283Y4300556D01*
X14426051Y4300787D01*
X14425589Y4301250D01*
X14424895Y4302176D01*
X14423969Y4303101D01*
X14421191Y4305647D01*
X14417953Y4308192D01*
X14417722Y4308423D01*
X14417027Y4308886D01*
X14416103Y4309349D01*
X14414713Y4310275D01*
X14413094Y4310969D01*
X14411011Y4311894D01*
X14406847Y4313745D01*
X14406615D01*
X14405688Y4313977D01*
X14404532Y4314440D01*
X14402911Y4314902D01*
X14399210Y4315597D01*
X14395508Y4315828D01*
D02*
G37*
G36*
X14090707Y4859969D02*
X14090475D01*
X14089783D01*
X14088857D01*
X14087700D01*
X14084923Y4859507D01*
X14082146Y4858350D01*
X14081915D01*
X14081451Y4858118D01*
X14080064Y4857193D01*
X14078444Y4855342D01*
X14076823Y4853028D01*
Y4852796D01*
X14076593Y4852333D01*
X14076131Y4851639D01*
X14075667Y4850482D01*
X14075436Y4849094D01*
X14074973Y4847474D01*
X14074741Y4843772D01*
Y4841921D01*
X14074973Y4840532D01*
X14075204Y4839144D01*
X14075667Y4837293D01*
X14076823Y4833591D01*
Y4833359D01*
X14077055Y4832665D01*
X14077518Y4831739D01*
X14078212Y4830582D01*
X14079832Y4827574D01*
X14081915Y4824335D01*
X14082146Y4824103D01*
X14082378Y4823641D01*
X14083072Y4822946D01*
X14083997Y4821789D01*
X14086543Y4819476D01*
X14089551Y4816699D01*
X14089783Y4816467D01*
X14090245Y4816236D01*
X14091170Y4815542D01*
X14092326Y4814848D01*
X14095335Y4813228D01*
X14098807Y4811839D01*
X14099039D01*
X14099963Y4811608D01*
X14101120Y4811145D01*
X14102740Y4810683D01*
X14104591Y4810451D01*
X14106674Y4809988D01*
X14110838Y4809526D01*
X14111070D01*
X14111765D01*
X14112691D01*
X14114078Y4809757D01*
X14117087Y4810220D01*
X14120326Y4811377D01*
X14120557D01*
X14121021Y4811839D01*
X14121713Y4812071D01*
X14122639Y4812765D01*
X14124722Y4814385D01*
X14126575Y4816699D01*
Y4816930D01*
X14126805Y4817393D01*
X14127267Y4818087D01*
X14127499Y4819013D01*
X14127962Y4820401D01*
X14128426Y4821789D01*
X14128656Y4825492D01*
Y4827343D01*
X14128426Y4828731D01*
X14127962Y4831971D01*
X14126805Y4835673D01*
Y4835904D01*
X14126341Y4836599D01*
X14126111Y4837524D01*
X14125417Y4838681D01*
X14123798Y4841458D01*
X14121483Y4844697D01*
X14121252Y4844929D01*
X14120789Y4845392D01*
X14120094Y4846317D01*
X14119170Y4847243D01*
X14116393Y4849788D01*
X14113153Y4852333D01*
X14112921Y4852565D01*
X14112227Y4853028D01*
X14111302Y4853490D01*
X14109914Y4854416D01*
X14108295Y4855110D01*
X14106210Y4856036D01*
X14102046Y4857887D01*
X14101814D01*
X14100890Y4858118D01*
X14099731Y4858581D01*
X14098112Y4859044D01*
X14094411Y4859738D01*
X14090707Y4859969D01*
D02*
G37*
G36*
X14036099Y4763710D02*
X14036562Y4763478D01*
X14037950Y4762553D01*
X14040031Y4761164D01*
X14042578Y4759313D01*
X14045586Y4756768D01*
X14049057Y4754222D01*
X14052528Y4750983D01*
X14056230Y4747743D01*
X14056693Y4747281D01*
X14057851Y4746124D01*
X14059470Y4744504D01*
X14061783Y4742190D01*
X14064330Y4739413D01*
X14067337Y4736636D01*
X14073122Y4730389D01*
X14073354Y4729926D01*
X14074510Y4729000D01*
X14075899Y4727381D01*
X14077750Y4725530D01*
X14079832Y4723216D01*
X14082146Y4720439D01*
X14087006Y4715117D01*
X14087238Y4714885D01*
X14087930Y4713960D01*
X14089088Y4712571D01*
X14090245Y4710952D01*
X14093022Y4707249D01*
X14094411Y4705167D01*
X14095335Y4703316D01*
Y4743347D01*
X14036099Y4763710D01*
D02*
G37*
G36*
X14115698Y4195406D02*
X14113847D01*
X14112459D01*
X14114078Y4194249D01*
X14115234Y4193323D01*
X14115698Y4193092D01*
Y4195406D01*
D02*
G37*
%LPD*%
D38*
X12248802Y7176479D02*
Y7154819D01*
X12292121Y7111500D01*
X12335440Y7154819D01*
Y7176479D01*
X12292121Y7111500D02*
Y7046521D01*
X12465398D02*
X12378760D01*
X12465398Y7133159D01*
Y7154819D01*
X12443739Y7176479D01*
X12400419D01*
X12378760Y7154819D01*
X12694920Y4724818D02*
Y4703158D01*
X12738239Y4659839D01*
X12781559Y4703158D01*
Y4724818D01*
X12738239Y4659839D02*
Y4594860D01*
X12824878D02*
X12868198D01*
X12846538D01*
Y4724818D01*
X12824878Y4703158D01*
X14538960Y7930298D02*
Y7822000D01*
X14560620Y7800340D01*
X14603938D01*
X14625600Y7822000D01*
Y7930298D01*
X14668918D02*
X14755557D01*
Y7908638D01*
X14668918Y7822000D01*
Y7800340D01*
X16797020Y7173378D02*
Y7065080D01*
X16818680Y7043420D01*
X16862000D01*
X16883659Y7065080D01*
Y7173378D01*
X17013617D02*
X16970297Y7151718D01*
X16926978Y7108399D01*
Y7065080D01*
X16948637Y7043420D01*
X16991957D01*
X17013617Y7065080D01*
Y7086739D01*
X16991957Y7108399D01*
X16926978D01*
X17405002Y6173679D02*
Y6065381D01*
X17426662Y6043721D01*
X17469981D01*
X17491640Y6065381D01*
Y6173679D01*
X17621597D02*
X17534959D01*
Y6108700D01*
X17578279Y6130360D01*
X17599939D01*
X17621597Y6108700D01*
Y6065381D01*
X17599939Y6043721D01*
X17556619D01*
X17534959Y6065381D01*
X12999719Y3604678D02*
Y3496380D01*
X13021381Y3474720D01*
X13064699D01*
X13086359Y3496380D01*
Y3604678D01*
X13194656Y3474720D02*
Y3604678D01*
X13129678Y3539699D01*
X13216318D01*
X11385202Y6364179D02*
Y6255881D01*
X11406861Y6234221D01*
X11450181D01*
X11471840Y6255881D01*
Y6364179D01*
X11515160Y6342519D02*
X11536819Y6364179D01*
X11580139D01*
X11601798Y6342519D01*
Y6320860D01*
X11580139Y6299200D01*
X11558479D01*
X11580139D01*
X11601798Y6277540D01*
Y6255881D01*
X11580139Y6234221D01*
X11536819D01*
X11515160Y6255881D01*
X12464702Y3532079D02*
Y3423781D01*
X12486361Y3402121D01*
X12529681D01*
X12551340Y3423781D01*
Y3532079D01*
X12681298Y3402121D02*
X12594660D01*
X12681298Y3488760D01*
Y3510419D01*
X12659639Y3532079D01*
X12616319D01*
X12594660Y3510419D01*
X13832561Y6478479D02*
Y6370181D01*
X13854221Y6348521D01*
X13897540D01*
X13919200Y6370181D01*
Y6478479D01*
X13962518Y6348521D02*
X14005840D01*
X13984180D01*
Y6478479D01*
X13962518Y6456819D01*
X13556902Y5297379D02*
Y5189081D01*
X13578561Y5167421D01*
X13621881D01*
X13643539Y5189081D01*
Y5297379D01*
X13686861Y5275719D02*
X13708519Y5297379D01*
X13751839D01*
X13773499Y5275719D01*
Y5189081D01*
X13751839Y5167421D01*
X13708519D01*
X13686861Y5189081D01*
Y5275719D01*
X16052800Y7604760D02*
Y7734718D01*
X16117780D01*
X16139439Y7713058D01*
Y7669739D01*
X16117780Y7648079D01*
X16052800D01*
X16096120D02*
X16139439Y7604760D01*
X16182758Y7713058D02*
X16204417Y7734718D01*
X16247737D01*
X16269397Y7713058D01*
Y7691399D01*
X16247737Y7669739D01*
X16226077D01*
X16247737D01*
X16269397Y7648079D01*
Y7626420D01*
X16247737Y7604760D01*
X16204417D01*
X16182758Y7626420D01*
X14273322Y7309198D02*
X14403279D01*
Y7244219D01*
X14381619Y7222559D01*
X14338300D01*
X14316641Y7244219D01*
Y7309198D01*
Y7265879D02*
X14273322Y7222559D01*
Y7092601D02*
Y7179240D01*
X14359959Y7092601D01*
X14381619D01*
X14403279Y7114261D01*
Y7157580D01*
X14381619Y7179240D01*
X14114780Y3327400D02*
Y3457358D01*
X14179759D01*
X14201419Y3435698D01*
Y3392379D01*
X14179759Y3370719D01*
X14114780D01*
X14158099D02*
X14201419Y3327400D01*
X14244737D02*
X14288058D01*
X14266399D01*
Y3457358D01*
X14244737Y3435698D01*
X16360419Y5369978D02*
X16317099D01*
X16338759D01*
Y5261680D01*
X16317099Y5240020D01*
X16295441D01*
X16273779Y5261680D01*
X16490376Y5240020D02*
X16403738D01*
X16490376Y5326659D01*
Y5348318D01*
X16468716Y5369978D01*
X16425398D01*
X16403738Y5348318D01*
X12497079Y8011578D02*
X12453759D01*
X12475419D01*
Y7903280D01*
X12453759Y7881620D01*
X12432100D01*
X12410440Y7903280D01*
X12540398Y7881620D02*
X12583718D01*
X12562058D01*
Y8011578D01*
X12540398Y7989918D01*
X15987820Y6237961D02*
Y6151323D01*
X16052800D01*
Y6194642D01*
Y6151323D01*
X16117780D01*
X15987820Y6281281D02*
X16117780D01*
Y6346260D01*
X16096120Y6367919D01*
X16074460D01*
X16052800Y6346260D01*
Y6281281D01*
Y6346260D01*
X16031140Y6367919D01*
X16009480D01*
X15987820Y6346260D01*
Y6281281D01*
X16117780Y6476218D02*
X15987820D01*
X16052800Y6411239D01*
Y6497878D01*
X15699461Y3773379D02*
X15612823D01*
Y3708400D01*
X15656142D01*
X15612823D01*
Y3643421D01*
X15742781Y3773379D02*
Y3643421D01*
X15807761D01*
X15829419Y3665081D01*
Y3686740D01*
X15807761Y3708400D01*
X15742781D01*
X15807761D01*
X15829419Y3730060D01*
Y3751719D01*
X15807761Y3773379D01*
X15742781D01*
X15872739Y3751719D02*
X15894398Y3773379D01*
X15937718D01*
X15959378Y3751719D01*
Y3730060D01*
X15937718Y3708400D01*
X15916058D01*
X15937718D01*
X15959378Y3686740D01*
Y3665081D01*
X15937718Y3643421D01*
X15894398D01*
X15872739Y3665081D01*
X11897639Y4991518D02*
X11811000D01*
Y4926539D01*
X11854319D01*
X11811000D01*
Y4861560D01*
X11940958Y4991518D02*
Y4861560D01*
X12005937D01*
X12027597Y4883220D01*
Y4904879D01*
X12005937Y4926539D01*
X11940958D01*
X12005937D01*
X12027597Y4948199D01*
Y4969858D01*
X12005937Y4991518D01*
X11940958D01*
X12157555Y4861560D02*
X12070916D01*
X12157555Y4948199D01*
Y4969858D01*
X12135895Y4991518D01*
X12092576D01*
X12070916Y4969858D01*
X13219221Y5307121D02*
Y5220482D01*
X13284200D01*
Y5263802D01*
Y5220482D01*
X13349179D01*
X13219221Y5350440D02*
X13349179D01*
Y5415419D01*
X13327519Y5437079D01*
X13305859D01*
X13284200Y5415419D01*
Y5350440D01*
Y5415419D01*
X13262540Y5437079D01*
X13240881D01*
X13219221Y5415419D01*
Y5350440D01*
X13349179Y5480398D02*
Y5523718D01*
Y5502058D01*
X13219221D01*
X13240881Y5480398D01*
X16254521Y6762402D02*
X16384479D01*
Y6827381D01*
X16362819Y6849040D01*
X16276181D01*
X16254521Y6827381D01*
Y6762402D01*
X16276181Y6892360D02*
X16254521Y6914019D01*
Y6957339D01*
X16276181Y6978998D01*
X16297839D01*
X16319501Y6957339D01*
Y6935679D01*
Y6957339D01*
X16341161Y6978998D01*
X16362819D01*
X16384479Y6957339D01*
Y6914019D01*
X16362819Y6892360D01*
X14209821Y6622802D02*
X14339780D01*
Y6687781D01*
X14318118Y6709440D01*
X14231480D01*
X14209821Y6687781D01*
Y6622802D01*
X14339780Y6839399D02*
Y6752760D01*
X14253140Y6839399D01*
X14231480D01*
X14209821Y6817739D01*
Y6774420D01*
X14231480Y6752760D01*
X14226260Y2782779D02*
Y2652821D01*
X14291240D01*
X14312900Y2674481D01*
Y2761119D01*
X14291240Y2782779D01*
X14226260D01*
X14356219Y2652821D02*
X14399539D01*
X14377879D01*
Y2782779D01*
X14356219Y2761119D01*
X16612009Y6547980D02*
X16633669Y6526320D01*
X16676988D01*
X16698648Y6547980D01*
Y6634619D01*
X16676988Y6656279D01*
X16633669D01*
X16612009Y6634619D01*
X16568689Y6656279D02*
X16525369D01*
X16547031D01*
Y6526320D01*
X16568689Y6547980D01*
X16395412Y6656279D02*
Y6526320D01*
X16460391Y6591299D01*
X16373753D01*
X16598508Y5963780D02*
X16620168Y5942120D01*
X16663487D01*
X16685147Y5963780D01*
Y6050419D01*
X16663487Y6072079D01*
X16620168D01*
X16598508Y6050419D01*
X16555190Y6072079D02*
X16511868D01*
X16533530D01*
Y5942120D01*
X16555190Y5963780D01*
X16446890D02*
X16425230Y5942120D01*
X16381912D01*
X16360252Y5963780D01*
Y5985440D01*
X16381912Y6007099D01*
X16403571D01*
X16381912D01*
X16360252Y6028759D01*
Y6050419D01*
X16381912Y6072079D01*
X16425230D01*
X16446890Y6050419D01*
X15956419Y2884110D02*
X15978079Y2905769D01*
Y2949089D01*
X15956419Y2970748D01*
X15869781D01*
X15848122Y2949089D01*
Y2905769D01*
X15869781Y2884110D01*
X15848122Y2840790D02*
Y2797471D01*
Y2819131D01*
X15978079D01*
X15956419Y2840790D01*
X15848122Y2645853D02*
Y2732492D01*
X15934760Y2645853D01*
X15956419D01*
X15978079Y2667513D01*
Y2710832D01*
X15956419Y2732492D01*
X15727818Y2873549D02*
X15749480Y2895208D01*
Y2938528D01*
X15727818Y2960187D01*
X15641180D01*
X15619521Y2938528D01*
Y2895208D01*
X15641180Y2873549D01*
X15619521Y2830229D02*
Y2786910D01*
Y2808570D01*
X15749480D01*
X15727818Y2830229D01*
X15619521Y2721931D02*
Y2678612D01*
Y2700271D01*
X15749480D01*
X15727818Y2721931D01*
X15499219Y2908709D02*
X15520879Y2930369D01*
Y2973688D01*
X15499219Y2995348D01*
X15412581D01*
X15390921Y2973688D01*
Y2930369D01*
X15412581Y2908709D01*
X15390921Y2865389D02*
Y2822070D01*
Y2843730D01*
X15520879D01*
X15499219Y2865389D01*
Y2757091D02*
X15520879Y2735432D01*
Y2692112D01*
X15499219Y2670453D01*
X15412581D01*
X15390921Y2692112D01*
Y2735432D01*
X15412581Y2757091D01*
X15499219D01*
X15296019Y2918861D02*
X15317679Y2940520D01*
Y2983840D01*
X15296019Y3005499D01*
X15209381D01*
X15187721Y2983840D01*
Y2940520D01*
X15209381Y2918861D01*
Y2875541D02*
X15187721Y2853882D01*
Y2810562D01*
X15209381Y2788903D01*
X15296019D01*
X15317679Y2810562D01*
Y2853882D01*
X15296019Y2875541D01*
X15274361D01*
X15252699Y2853882D01*
Y2788903D01*
X15067419Y2918060D02*
X15089079Y2939720D01*
Y2983039D01*
X15067419Y3004699D01*
X14980782D01*
X14959122Y2983039D01*
Y2939720D01*
X14980782Y2918060D01*
X15067419Y2874741D02*
X15089079Y2853081D01*
Y2809761D01*
X15067419Y2788102D01*
X15045760D01*
X15024100Y2809761D01*
X15002441Y2788102D01*
X14980782D01*
X14959122Y2809761D01*
Y2853081D01*
X14980782Y2874741D01*
X15002441D01*
X15024100Y2853081D01*
X15045760Y2874741D01*
X15067419D01*
X15024100Y2853081D02*
Y2809761D01*
X14870795Y2918060D02*
X14892455Y2939720D01*
Y2983039D01*
X14870795Y3004699D01*
X14784155D01*
X14762497Y2983039D01*
Y2939720D01*
X14784155Y2918060D01*
X14892455Y2874741D02*
Y2788102D01*
X14870795D01*
X14784155Y2874741D01*
X14762497D01*
X15664459Y5282278D02*
X15642799Y5303938D01*
X15599480D01*
X15577820Y5282278D01*
Y5195640D01*
X15599480Y5173980D01*
X15642799D01*
X15664459Y5195640D01*
X15794417Y5303938D02*
X15751099Y5282278D01*
X15707777Y5238959D01*
Y5195640D01*
X15729437Y5173980D01*
X15772757D01*
X15794417Y5195640D01*
Y5217299D01*
X15772757Y5238959D01*
X15707777D01*
X13961040Y5872619D02*
X13939381Y5894279D01*
X13896062D01*
X13874402Y5872619D01*
Y5785981D01*
X13896062Y5764321D01*
X13939381D01*
X13961040Y5785981D01*
X14090997Y5894279D02*
X14004359D01*
Y5829300D01*
X14047679Y5850960D01*
X14069339D01*
X14090997Y5829300D01*
Y5785981D01*
X14069339Y5764321D01*
X14026019D01*
X14004359Y5785981D01*
X12360840Y4449419D02*
X12339181Y4471078D01*
X12295861D01*
X12274202Y4449419D01*
Y4362780D01*
X12295861Y4341120D01*
X12339181D01*
X12360840Y4362780D01*
X12469139Y4341120D02*
Y4471078D01*
X12404160Y4406099D01*
X12490798D01*
X11573440Y4436719D02*
X11551781Y4458378D01*
X11508461D01*
X11486802Y4436719D01*
Y4350080D01*
X11508461Y4328420D01*
X11551781D01*
X11573440Y4350080D01*
X11616760Y4436719D02*
X11638419Y4458378D01*
X11681739D01*
X11703398Y4436719D01*
Y4415059D01*
X11681739Y4393399D01*
X11660079D01*
X11681739D01*
X11703398Y4371740D01*
Y4350080D01*
X11681739Y4328420D01*
X11638419D01*
X11616760Y4350080D01*
X12753740Y5085219D02*
X12732080Y5106879D01*
X12688761D01*
X12667101Y5085219D01*
Y4998581D01*
X12688761Y4976921D01*
X12732080D01*
X12753740Y4998581D01*
X12883698Y4976921D02*
X12797059D01*
X12883698Y5063560D01*
Y5085219D01*
X12862038Y5106879D01*
X12818719D01*
X12797059Y5085219D01*
X12768859Y5752178D02*
X12747199Y5773838D01*
X12703880D01*
X12682220Y5752178D01*
Y5665540D01*
X12703880Y5643880D01*
X12747199D01*
X12768859Y5665540D01*
X12812178Y5643880D02*
X12855498D01*
X12833838D01*
Y5773838D01*
X12812178Y5752178D01*
D47*
X13842999Y3606800D02*
G03*
X13842999Y3606800I-12700J0D01*
G01*
X13043401Y6547600D02*
G03*
X13043401Y6547600I-12500J0D01*
G01*
X14096800Y6892000D02*
G03*
X14096800Y6892000I-12500J0D01*
G01*
X14145399Y2895600D02*
G03*
X14145399Y2895600I-12500J0D01*
G01*
X16141499Y7038000D02*
G03*
X16141499Y7038000I-12500J0D01*
G01*
X16878799Y5976100D02*
G03*
X16878799Y5976100I-12500J0D01*
G01*
X12216900Y6223700D02*
G03*
X12216900Y6223700I-12500J0D01*
G01*
X11672500Y4121900D02*
G03*
X11672500Y4121900I-12500J0D01*
G01*
X16853400Y6941300D02*
G03*
X16853400Y6941300I-12500J0D01*
G01*
X16285600Y4791800D02*
G03*
X16285600Y4791800I-12500J0D01*
G01*
X13056100Y3372600D02*
G03*
X13056100Y3372600I-12500J0D01*
G01*
D48*
X14543401Y6997000D02*
G03*
X14543401Y6997000I-10000J0D01*
G01*
X13581100Y6918400D02*
G03*
X13581100Y6918400I-10000J0D01*
G01*
X12449600Y6867000D02*
G03*
X12449600Y6867000I-10000J0D01*
G01*
X13176700Y3740200D02*
G03*
X13176700Y3740200I-10000J0D01*
G01*
X13903400Y3750400D02*
X15103400D01*
X13903400Y5190400D02*
X15103400D01*
X13783400Y3870400D02*
Y5070400D01*
X15223399Y3870400D02*
Y5070400D01*
X13783400Y3870400D02*
X13903400Y3750400D01*
X13783400Y5070400D02*
X13903400Y5190400D01*
X15103400Y3750400D02*
X15223399Y3870400D01*
X15103400Y5190400D02*
X15223399Y5070400D01*
X13903400Y3750400D02*
Y3900400D01*
X13953400D01*
Y3750400D02*
Y3900400D01*
X12799100Y7253400D02*
Y7378400D01*
X13693100Y7253400D02*
Y7378400D01*
X12799100Y7650400D02*
Y7778400D01*
X13693100Y7650400D02*
Y7778400D01*
X16434793Y6125300D02*
X16636008D01*
X16434793Y6295300D02*
X16636008D01*
X13185150Y5872350D02*
Y6522850D01*
Y5872350D02*
X13535651D01*
Y6522850D01*
X13185150D02*
X13535651D01*
X13882092Y5541100D02*
X14083307D01*
X13882092Y5711100D02*
X14083307D01*
X14004300Y6627000D02*
Y6797000D01*
X14164301Y6627000D02*
Y6797000D01*
X14227901Y2815600D02*
X14397900D01*
X14227901Y2975600D02*
X14397900D01*
X16049001Y6773000D02*
Y6943000D01*
X16209000Y6773000D02*
Y6943000D01*
X16175789Y6183097D02*
Y6468919D01*
X16361610Y6183097D02*
Y6468919D01*
X16434793Y6498500D02*
X16636008D01*
X16434793Y6328500D02*
X16636008D01*
X17020551Y5300850D02*
Y5951350D01*
Y5300850D02*
X17371049D01*
Y5951350D01*
X17020551D02*
X17371049D01*
X12675593Y5172800D02*
X12876807D01*
X12675593Y5342800D02*
X12876807D01*
X13148511Y5229189D02*
Y5515011D01*
X12962689Y5229189D02*
Y5515011D01*
X12269400Y6031200D02*
X12284400D01*
X11564400D02*
X11579400D01*
X11564400Y5311200D02*
Y5326200D01*
Y6016200D02*
Y6031200D01*
X12269400Y5311200D02*
X12284400D01*
X11564400D02*
X11579400D01*
X12284400D02*
Y5326200D01*
Y6016200D02*
Y6031200D01*
X15985400Y3087894D02*
Y3289107D01*
X15815401Y3087894D02*
Y3289107D01*
X15643188Y3560011D02*
X15929012D01*
X15643188Y3374189D02*
X15929012D01*
X15769501Y3087093D02*
Y3288307D01*
X15599500Y3087093D02*
Y3288307D01*
X15553600Y3087894D02*
Y3289107D01*
X15383600Y3087894D02*
Y3289107D01*
X15337700Y3087894D02*
Y3289107D01*
X15167700Y3087894D02*
Y3289107D01*
X15121800Y3087894D02*
Y3289107D01*
X14951801Y3087894D02*
Y3289107D01*
X14905901Y3087894D02*
Y3289107D01*
X14735899Y3087894D02*
Y3289107D01*
X11814250Y3446650D02*
Y4097150D01*
Y3446650D02*
X12164750D01*
Y4097150D01*
X11814250D02*
X12164750D01*
X12188100Y4293593D02*
Y4494807D01*
X12018100Y4293593D02*
Y4494807D01*
X11959500Y4293593D02*
Y4494807D01*
X11789500Y4293593D02*
Y4494807D01*
X14034500Y7178200D02*
Y7198200D01*
X14159500Y7178200D02*
Y7198200D01*
X16995151Y6266050D02*
Y6916550D01*
Y6266050D02*
X17345650D01*
Y6916550D01*
X16995151D02*
X17345650D01*
X16091901Y7305200D02*
Y7325200D01*
X16216901Y7305200D02*
Y7325200D01*
X16463600Y3339800D02*
X16527100D01*
X16882100D02*
X17230099D01*
X16463600Y5143800D02*
X16527100D01*
X16882100D02*
X17230099D01*
X16463600Y4843300D02*
Y5143800D01*
Y3339800D02*
Y3790300D01*
X12675593Y5388700D02*
X12876807D01*
X12675593Y5558700D02*
X12876807D01*
X11845889Y4766511D02*
X12131711D01*
X11845889Y4580689D02*
X12131711D01*
X15561400Y4877793D02*
Y5079007D01*
X15731400Y4877793D02*
Y5079007D01*
X14291800Y3186700D02*
X14311800D01*
X14291800Y3061700D02*
X14311800D01*
X13197850Y2697350D02*
Y3347850D01*
Y2697350D02*
X13548351D01*
Y3347850D01*
X13197850D02*
X13548351D01*
D49*
X14598399Y7697000D02*
X15918401D01*
X14598399Y7159000D02*
Y7697000D01*
X15918401Y7159000D02*
Y7697000D01*
X12389600Y6583000D02*
Y6751000D01*
X11689600Y6583000D02*
Y6751000D01*
X12882700Y3790200D02*
X13050700D01*
X12882700Y4490200D02*
X13050700D01*
%TF.MD5,97b4b455348b6370536c58874499f78f*%
M02*
