%TF.GenerationSoftware,Altium Limited,Altium Designer,23.4.1 (23)*%
G04 Layer_Color=8421504*
%FSLAX45Y45*%
%MOMM*%
%TF.SameCoordinates,1140DA37-B3DB-4B23-8321-DC1501029C55*%
%TF.FilePolarity,Positive*%
%TF.FileFunction,Paste,Top*%
%TF.Part,Single*%
G01*
G75*
%TA.AperFunction,SMDPad,CuDef*%
%ADD10R,0.30000X2.20000*%
%ADD11R,2.20000X0.30000*%
%ADD12R,0.70000X0.70000*%
%TA.AperFunction,BGAPad,CuDef*%
%ADD13R,1.45000X1.45000*%
%TA.AperFunction,SMDPad,CuDef*%
%ADD15R,0.40000X0.80000*%
%ADD16R,0.80000X0.40000*%
%TA.AperFunction,ConnectorPad*%
%ADD17R,0.30000X1.15000*%
%ADD18R,0.60000X1.15000*%
%TA.AperFunction,SMDPad,CuDef*%
%ADD19R,0.75814X0.81213*%
G04:AMPARAMS|DCode=20|XSize=1.00429mm|YSize=3.18213mm|CornerRadius=0.43687mm|HoleSize=0mm|Usage=FLASHONLY|Rotation=0.000|XOffset=0mm|YOffset=0mm|HoleType=Round|Shape=RoundedRectangle|*
%AMROUNDEDRECTD20*
21,1,1.00429,2.30840,0,0,0.0*
21,1,0.13056,3.18213,0,0,0.0*
1,1,0.87373,0.06528,-1.15420*
1,1,0.87373,-0.06528,-1.15420*
1,1,0.87373,-0.06528,1.15420*
1,1,0.87373,0.06528,1.15420*
%
%ADD20ROUNDEDRECTD20*%
G04:AMPARAMS|DCode=21|XSize=1.00429mm|YSize=0.87213mm|CornerRadius=0.43606mm|HoleSize=0mm|Usage=FLASHONLY|Rotation=0.000|XOffset=0mm|YOffset=0mm|HoleType=Round|Shape=RoundedRectangle|*
%AMROUNDEDRECTD21*
21,1,1.00429,0.00000,0,0,0.0*
21,1,0.13216,0.87213,0,0,0.0*
1,1,0.87213,0.06608,0.00000*
1,1,0.87213,-0.06608,0.00000*
1,1,0.87213,-0.06608,0.00000*
1,1,0.87213,0.06608,0.00000*
%
%ADD21ROUNDEDRECTD21*%
%ADD22R,1.00429X0.87213*%
%TA.AperFunction,BGAPad,CuDef*%
%ADD23R,1.60000X1.60000*%
%TA.AperFunction,SMDPad,CuDef*%
%ADD24R,0.80000X0.80000*%
%ADD25R,0.80000X0.80000*%
%ADD26R,1.05822X1.30606*%
%ADD27R,1.55000X0.55000*%
%ADD28R,0.55000X1.55000*%
%ADD29R,0.81213X0.75814*%
%ADD30R,1.30606X1.05822*%
%ADD31R,1.45000X1.20000*%
%TA.AperFunction,ConnectorPad*%
%ADD32R,2.40000X0.28000*%
%TA.AperFunction,BGAPad,CuDef*%
%ADD33R,1.60000X1.60000*%
%TA.AperFunction,SMDPad,CuDef*%
%ADD34R,1.20000X1.45000*%
G36*
X15133400Y6722000D02*
X14988400D01*
Y6807000D01*
X15048399Y6867000D01*
X15133400D01*
Y6722000D01*
D02*
G37*
D10*
X13903400Y3600400D02*
D03*
X13953400D02*
D03*
X14003400D02*
D03*
X14053400D02*
D03*
X14103400D02*
D03*
X14153400D02*
D03*
X14203400D02*
D03*
X14253400D02*
D03*
X14303400D02*
D03*
X14353400D02*
D03*
X14403400D02*
D03*
X14453400D02*
D03*
X14503400D02*
D03*
X14553400D02*
D03*
X14603400D02*
D03*
X14653400D02*
D03*
X14703400D02*
D03*
X14753400D02*
D03*
X14803400D02*
D03*
X14853400D02*
D03*
X14903400D02*
D03*
X14953400D02*
D03*
X15003400D02*
D03*
X15053400D02*
D03*
X15103400D02*
D03*
Y5340400D02*
D03*
X15053400D02*
D03*
X15003400D02*
D03*
X14953400D02*
D03*
X14903400D02*
D03*
X14853400D02*
D03*
X14803400D02*
D03*
X14753400D02*
D03*
X14703400D02*
D03*
X14653400D02*
D03*
X14603400D02*
D03*
X14553400D02*
D03*
X14503400D02*
D03*
X14453400D02*
D03*
X14403400D02*
D03*
X14353400D02*
D03*
X14303400D02*
D03*
X14253400D02*
D03*
X14203400D02*
D03*
X14153400D02*
D03*
X14103400D02*
D03*
X14053400D02*
D03*
X14003400D02*
D03*
X13953400D02*
D03*
X13903400D02*
D03*
D11*
X15373399Y3870400D02*
D03*
Y3920400D02*
D03*
Y3970400D02*
D03*
Y4020400D02*
D03*
Y4070400D02*
D03*
Y4120400D02*
D03*
Y4170400D02*
D03*
Y4220400D02*
D03*
Y4270400D02*
D03*
Y4320400D02*
D03*
Y4370400D02*
D03*
Y4420400D02*
D03*
Y4470400D02*
D03*
Y4520400D02*
D03*
Y4570400D02*
D03*
Y4620400D02*
D03*
Y4670400D02*
D03*
Y4720400D02*
D03*
Y4770400D02*
D03*
Y4820400D02*
D03*
Y4870400D02*
D03*
Y4920400D02*
D03*
Y4970400D02*
D03*
Y5020400D02*
D03*
Y5070400D02*
D03*
X13633400D02*
D03*
Y5020400D02*
D03*
Y4970400D02*
D03*
Y4920400D02*
D03*
Y4870400D02*
D03*
Y4820400D02*
D03*
Y4770400D02*
D03*
Y4720400D02*
D03*
Y4670400D02*
D03*
Y4620400D02*
D03*
Y4570400D02*
D03*
Y4520400D02*
D03*
Y4470400D02*
D03*
Y4420400D02*
D03*
Y4370400D02*
D03*
Y4320400D02*
D03*
Y4270400D02*
D03*
Y4220400D02*
D03*
Y4170400D02*
D03*
Y4120400D02*
D03*
Y4070400D02*
D03*
Y4020400D02*
D03*
Y3970400D02*
D03*
Y3920400D02*
D03*
Y3870400D02*
D03*
D12*
X15853400Y7092000D02*
D03*
Y6102000D02*
D03*
X14663400D02*
D03*
Y7092000D02*
D03*
D13*
X15455901Y6597000D02*
D03*
Y6399500D02*
D03*
X15258400D02*
D03*
X15060899D02*
D03*
Y6597000D02*
D03*
X15258400Y6794500D02*
D03*
X15455901D02*
D03*
X15258400Y6597000D02*
D03*
D15*
X14778400Y7087000D02*
D03*
X14858400D02*
D03*
X14938400D02*
D03*
X15018401D02*
D03*
X15098399D02*
D03*
X15178400D02*
D03*
X15258400D02*
D03*
X15338400D02*
D03*
X15418401D02*
D03*
X15498399D02*
D03*
X15578400D02*
D03*
X15658400D02*
D03*
X15738400D02*
D03*
Y6107000D02*
D03*
X15658400D02*
D03*
X15578400D02*
D03*
X15498399D02*
D03*
X15418401D02*
D03*
X15338400D02*
D03*
X15258400D02*
D03*
X15178400D02*
D03*
X15098399D02*
D03*
X15018401D02*
D03*
X14938400D02*
D03*
X14858400D02*
D03*
X14778400D02*
D03*
D16*
X15848399Y6997000D02*
D03*
Y6917000D02*
D03*
Y6837000D02*
D03*
Y6757000D02*
D03*
Y6677000D02*
D03*
Y6597000D02*
D03*
Y6517000D02*
D03*
Y6437000D02*
D03*
Y6357000D02*
D03*
Y6277000D02*
D03*
Y6197000D02*
D03*
X14668401D02*
D03*
Y6277000D02*
D03*
Y6357000D02*
D03*
Y6437000D02*
D03*
Y6517000D02*
D03*
Y6597000D02*
D03*
Y6677000D02*
D03*
Y6757000D02*
D03*
Y6837000D02*
D03*
Y6917000D02*
D03*
Y6997000D02*
D03*
D17*
X13421100Y7042900D02*
D03*
X13371100D02*
D03*
X13321100D02*
D03*
X13071100D02*
D03*
X13121100D02*
D03*
X13171100D02*
D03*
X13271100D02*
D03*
X13221100D02*
D03*
D18*
X13006100D02*
D03*
X13486099D02*
D03*
X12926100D02*
D03*
X13566100D02*
D03*
D19*
X16472701Y6210300D02*
D03*
X16598099D02*
D03*
X13920001Y5626100D02*
D03*
X14045399D02*
D03*
X16598099Y6413500D02*
D03*
X16472701D02*
D03*
X12713501Y5257800D02*
D03*
X12838899D02*
D03*
X12713501Y5473700D02*
D03*
X12838899D02*
D03*
D20*
X13689900Y6197600D02*
D03*
X17525301Y5626100D02*
D03*
X12319000Y3771900D02*
D03*
X17499899Y6591300D02*
D03*
X13702600Y3022600D02*
D03*
D21*
X13030901Y5968600D02*
D03*
Y6197600D02*
D03*
X16866299Y5397100D02*
D03*
Y5626100D02*
D03*
X11660000Y3542900D02*
D03*
Y3771900D02*
D03*
X16840900Y6362300D02*
D03*
Y6591300D02*
D03*
X13043600Y2793600D02*
D03*
Y3022600D02*
D03*
D22*
X13030901Y6426600D02*
D03*
X16866299Y5855100D02*
D03*
X11660000Y4000900D02*
D03*
X16840900Y6820300D02*
D03*
X13043600Y3251600D02*
D03*
D23*
X12039600Y6857000D02*
D03*
Y6477000D02*
D03*
X12293600Y6857000D02*
D03*
X11785600D02*
D03*
Y6477000D02*
D03*
X12293600D02*
D03*
D24*
X14084300Y6629500D02*
D03*
Y6794500D02*
D03*
X16128999Y6775500D02*
D03*
Y6940500D02*
D03*
D25*
X14395399Y2895600D02*
D03*
X14230400D02*
D03*
D26*
X16268700Y6403616D02*
D03*
Y6248400D02*
D03*
X13055600Y5294492D02*
D03*
Y5449708D02*
D03*
D27*
X12344400Y5951200D02*
D03*
Y5871200D02*
D03*
Y5791200D02*
D03*
Y5711200D02*
D03*
Y5631200D02*
D03*
Y5551200D02*
D03*
Y5471200D02*
D03*
Y5391200D02*
D03*
X11504400D02*
D03*
Y5471200D02*
D03*
Y5551200D02*
D03*
Y5631200D02*
D03*
Y5711200D02*
D03*
Y5791200D02*
D03*
Y5871200D02*
D03*
Y5951200D02*
D03*
D28*
X12204400Y5251200D02*
D03*
X12124400D02*
D03*
X12044400D02*
D03*
X11964400D02*
D03*
X11884400D02*
D03*
X11804400D02*
D03*
X11724400D02*
D03*
X11644400D02*
D03*
Y6091200D02*
D03*
X11724400D02*
D03*
X11804400D02*
D03*
X11884400D02*
D03*
X11964400D02*
D03*
X12044400D02*
D03*
X12124400D02*
D03*
X12204400D02*
D03*
D29*
X15900400Y3125801D02*
D03*
Y3251200D02*
D03*
X15684500Y3125001D02*
D03*
Y3250399D02*
D03*
X15468600Y3125801D02*
D03*
Y3251200D02*
D03*
X15252699Y3125801D02*
D03*
Y3251200D02*
D03*
X15036800Y3125801D02*
D03*
Y3251200D02*
D03*
X14820900Y3125801D02*
D03*
Y3251200D02*
D03*
X12103100Y4331501D02*
D03*
Y4456899D02*
D03*
X11874500Y4331501D02*
D03*
Y4456899D02*
D03*
X15646400Y5041099D02*
D03*
Y4915701D02*
D03*
D30*
X15863708Y3467100D02*
D03*
X15708492D02*
D03*
X12066408Y4673600D02*
D03*
X11911192D02*
D03*
D31*
X14097000Y7088200D02*
D03*
Y7288200D02*
D03*
X16154401Y7215200D02*
D03*
Y7415200D02*
D03*
D32*
X16444600Y3841800D02*
D03*
Y3891800D02*
D03*
Y3941800D02*
D03*
Y3991800D02*
D03*
Y4041800D02*
D03*
Y4091800D02*
D03*
Y4141800D02*
D03*
Y4191800D02*
D03*
Y4241800D02*
D03*
Y4291800D02*
D03*
Y4341800D02*
D03*
Y4391800D02*
D03*
Y4441800D02*
D03*
Y4491800D02*
D03*
Y4541800D02*
D03*
Y4591800D02*
D03*
Y4641800D02*
D03*
Y4691800D02*
D03*
Y4741800D02*
D03*
Y4791800D02*
D03*
D33*
X13156700Y4140200D02*
D03*
X12776700D02*
D03*
X13156700Y3886200D02*
D03*
Y4394200D02*
D03*
X12776700D02*
D03*
Y3886200D02*
D03*
D34*
X14201801Y3124200D02*
D03*
X14401801D02*
D03*
%TF.MD5,ab65cf48414826b15d01ac78b9e64154*%
M02*
