%TF.GenerationSoftware,Altium Limited,Altium Designer,23.4.1 (23)*%
G04 Layer_Physical_Order=1*
G04 Layer_Color=255*
%FSLAX45Y45*%
%MOMM*%
%TF.SameCoordinates,1140DA37-B3DB-4B23-8321-DC1501029C55*%
%TF.FilePolarity,Positive*%
%TF.FileFunction,Copper,L1,Top,Signal*%
%TF.Part,Single*%
G01*
G75*
%TA.AperFunction,SMDPad,CuDef*%
%ADD10R,0.30000X2.20000*%
%ADD11R,2.20000X0.30000*%
%ADD12R,0.70000X0.70000*%
%TA.AperFunction,BGAPad,CuDef*%
%ADD13R,1.45000X1.45000*%
%TA.AperFunction,SMDPad,CuDef*%
%ADD14R,0.60000X0.60000*%
%ADD15R,0.40000X0.80000*%
%ADD16R,0.80000X0.40000*%
%TA.AperFunction,ConnectorPad*%
%ADD17R,0.30000X1.15000*%
%ADD18R,0.60000X1.15000*%
%TA.AperFunction,SMDPad,CuDef*%
%ADD19R,0.75814X0.81213*%
G04:AMPARAMS|DCode=20|XSize=1.00429mm|YSize=3.18213mm|CornerRadius=0.43687mm|HoleSize=0mm|Usage=FLASHONLY|Rotation=0.000|XOffset=0mm|YOffset=0mm|HoleType=Round|Shape=RoundedRectangle|*
%AMROUNDEDRECTD20*
21,1,1.00429,2.30840,0,0,0.0*
21,1,0.13056,3.18213,0,0,0.0*
1,1,0.87373,0.06528,-1.15420*
1,1,0.87373,-0.06528,-1.15420*
1,1,0.87373,-0.06528,1.15420*
1,1,0.87373,0.06528,1.15420*
%
%ADD20ROUNDEDRECTD20*%
G04:AMPARAMS|DCode=21|XSize=1.00429mm|YSize=0.87213mm|CornerRadius=0.43606mm|HoleSize=0mm|Usage=FLASHONLY|Rotation=0.000|XOffset=0mm|YOffset=0mm|HoleType=Round|Shape=RoundedRectangle|*
%AMROUNDEDRECTD21*
21,1,1.00429,0.00000,0,0,0.0*
21,1,0.13216,0.87213,0,0,0.0*
1,1,0.87213,0.06608,0.00000*
1,1,0.87213,-0.06608,0.00000*
1,1,0.87213,-0.06608,0.00000*
1,1,0.87213,0.06608,0.00000*
%
%ADD21ROUNDEDRECTD21*%
%ADD22R,1.00429X0.87213*%
%TA.AperFunction,BGAPad,CuDef*%
%ADD23R,1.60000X1.60000*%
%TA.AperFunction,SMDPad,CuDef*%
%ADD24R,0.80000X0.80000*%
%ADD25R,0.80000X0.80000*%
%ADD26R,1.05822X1.30606*%
%ADD27R,1.55000X0.55000*%
%ADD28R,0.55000X1.55000*%
%ADD29R,0.81213X0.75814*%
%ADD30R,1.30606X1.05822*%
%ADD31R,1.45000X1.20000*%
%TA.AperFunction,ConnectorPad*%
%ADD32R,2.40000X0.28000*%
%TA.AperFunction,BGAPad,CuDef*%
%ADD33R,1.60000X1.60000*%
%TA.AperFunction,SMDPad,CuDef*%
%ADD34R,1.20000X1.45000*%
%TA.AperFunction,Conductor*%
%ADD35C,0.20000*%
%ADD36C,0.40000*%
%ADD37C,0.30000*%
%TA.AperFunction,NonConductor*%
%ADD38C,0.25400*%
%TA.AperFunction,ComponentPad*%
%ADD39C,0.65000*%
%ADD40O,1.00000X2.10000*%
G04:AMPARAMS|DCode=41|XSize=1.8mm|YSize=1mm|CornerRadius=0.25mm|HoleSize=0mm|Usage=FLASHONLY|Rotation=270.000|XOffset=0mm|YOffset=0mm|HoleType=Round|Shape=RoundedRectangle|*
%AMROUNDEDRECTD41*
21,1,1.80000,0.50000,0,0,270.0*
21,1,1.30000,1.00000,0,0,270.0*
1,1,0.50000,-0.25000,-0.65000*
1,1,0.50000,-0.25000,0.65000*
1,1,0.50000,0.25000,0.65000*
1,1,0.50000,0.25000,-0.65000*
%
%ADD41ROUNDEDRECTD41*%
%ADD42C,1.40000*%
G04:AMPARAMS|DCode=43|XSize=1.2mm|YSize=2.3mm|CornerRadius=0.6mm|HoleSize=0mm|Usage=FLASHONLY|Rotation=90.000|XOffset=0mm|YOffset=0mm|HoleType=Round|Shape=RoundedRectangle|*
%AMROUNDEDRECTD43*
21,1,1.20000,1.10000,0,0,90.0*
21,1,0.00000,2.30000,0,0,90.0*
1,1,1.20000,0.55000,0.00000*
1,1,1.20000,0.55000,0.00000*
1,1,1.20000,-0.55000,0.00000*
1,1,1.20000,-0.55000,0.00000*
%
%ADD43ROUNDEDRECTD43*%
G04:AMPARAMS|DCode=44|XSize=1.2mm|YSize=2.8mm|CornerRadius=0.6mm|HoleSize=0mm|Usage=FLASHONLY|Rotation=90.000|XOffset=0mm|YOffset=0mm|HoleType=Round|Shape=RoundedRectangle|*
%AMROUNDEDRECTD44*
21,1,1.20000,1.60000,0,0,90.0*
21,1,0.00000,2.80000,0,0,90.0*
1,1,1.20000,0.80000,0.00000*
1,1,1.20000,0.80000,0.00000*
1,1,1.20000,-0.80000,0.00000*
1,1,1.20000,-0.80000,0.00000*
%
%ADD44ROUNDEDRECTD44*%
%TA.AperFunction,ViaPad*%
%ADD45C,0.25000*%
%ADD46C,3.00000*%
G36*
X13738393Y7635708D02*
X13730296Y7625843D01*
X13722765Y7630876D01*
X13703101Y7634787D01*
X13690800D01*
Y7518400D01*
Y7402013D01*
X13703101D01*
X13722765Y7405924D01*
X13728700Y7409890D01*
X13741400Y7403102D01*
Y7216146D01*
X13728700Y7211613D01*
X13716125Y7221262D01*
X13697783Y7228860D01*
X13690800Y7229779D01*
Y7100401D01*
X13665401D01*
Y7229779D01*
X13658417Y7228860D01*
X13640076Y7221262D01*
X13624324Y7209176D01*
X13614400Y7196243D01*
X13601855Y7199391D01*
X13601700Y7199481D01*
Y7200900D01*
X13487399Y7315200D01*
X12979401D01*
X12890500Y7226300D01*
Y7199481D01*
X12890344Y7199391D01*
X12877800Y7196243D01*
X12867876Y7209176D01*
X12852126Y7221262D01*
X12833784Y7228860D01*
X12826801Y7229779D01*
Y7100400D01*
X12814101D01*
Y7087700D01*
X12738049D01*
Y7045400D01*
X12740641Y7025716D01*
X12748238Y7007375D01*
X12760324Y6991624D01*
X12768957Y6985000D01*
X12764646Y6972300D01*
X12623800D01*
X12534900Y7061200D01*
Y7658100D01*
X13716000D01*
X13738393Y7635708D01*
D02*
G37*
G36*
X17627600Y2832100D02*
X17475200Y2679700D01*
X16471899D01*
Y3378200D01*
X16527951Y3434251D01*
X16537585Y3429500D01*
X16691901D01*
Y3502937D01*
X16624600D01*
X16613081Y3501420D01*
X16607149Y3513449D01*
X16764000Y3670300D01*
Y4610100D01*
Y4673600D01*
X16535400Y4914900D01*
X16522701D01*
Y5156200D01*
X16497301Y5181600D01*
X16535400Y5219700D01*
X17627600D01*
Y2832100D01*
D02*
G37*
G36*
X15133400Y6722000D02*
X14988400D01*
Y6807000D01*
X15048399Y6867000D01*
X15133400D01*
Y6722000D01*
D02*
G37*
%LPC*%
G36*
X13665401Y7634787D02*
X13653101D01*
X13633435Y7630876D01*
X13616763Y7619736D01*
X13605624Y7603065D01*
X13601714Y7583400D01*
Y7531100D01*
X13665401D01*
Y7634787D01*
D02*
G37*
G36*
X12839101D02*
X12826801D01*
Y7531100D01*
X12890488D01*
Y7583400D01*
X12886575Y7603065D01*
X12875436Y7619736D01*
X12858765Y7630876D01*
X12839101Y7634787D01*
D02*
G37*
G36*
X12801401D02*
X12789100D01*
X12769435Y7630876D01*
X12752764Y7619736D01*
X12741625Y7603065D01*
X12737713Y7583400D01*
Y7531100D01*
X12801401D01*
Y7634787D01*
D02*
G37*
G36*
X13665401Y7505700D02*
X13601714D01*
Y7453400D01*
X13605624Y7433735D01*
X13616763Y7417064D01*
X13633435Y7405924D01*
X13653101Y7402013D01*
X13665401D01*
Y7505700D01*
D02*
G37*
G36*
X12890488Y7505700D02*
X12826801D01*
Y7402013D01*
X12839101D01*
X12858765Y7405924D01*
X12875436Y7417064D01*
X12886575Y7433735D01*
X12890488Y7453400D01*
Y7505700D01*
D02*
G37*
G36*
X12801401D02*
X12737713D01*
Y7453400D01*
X12741625Y7433735D01*
X12752764Y7417064D01*
X12769435Y7405924D01*
X12789100Y7402013D01*
X12801401D01*
Y7505700D01*
D02*
G37*
G36*
X12801401Y7229779D02*
X12794417Y7228860D01*
X12776075Y7221262D01*
X12760324Y7209176D01*
X12748238Y7193426D01*
X12740641Y7175084D01*
X12738049Y7155400D01*
Y7113100D01*
X12801401D01*
Y7229779D01*
D02*
G37*
G36*
X17437601Y5152937D02*
X17395300D01*
Y5079500D01*
X17522066D01*
X17520802Y5089094D01*
X17512196Y5109868D01*
X17498508Y5127708D01*
X17480669Y5141396D01*
X17459894Y5150002D01*
X17437601Y5152937D01*
D02*
G37*
G36*
X17369901D02*
X17327600D01*
X17305305Y5150002D01*
X17284531Y5141396D01*
X17266692Y5127708D01*
X17253003Y5109868D01*
X17244398Y5089094D01*
X17243135Y5079500D01*
X17369901D01*
Y5152937D01*
D02*
G37*
G36*
X16784599D02*
X16717300D01*
Y5079500D01*
X16869064D01*
X16867802Y5089094D01*
X16859196Y5109868D01*
X16845508Y5127708D01*
X16827669Y5141396D01*
X16806894Y5150002D01*
X16784599Y5152937D01*
D02*
G37*
G36*
X16691901D02*
X16624600D01*
X16602306Y5150002D01*
X16581532Y5141396D01*
X16563692Y5127708D01*
X16550003Y5109868D01*
X16541399Y5089094D01*
X16540135Y5079500D01*
X16691901D01*
Y5152937D01*
D02*
G37*
G36*
X17522066Y5054100D02*
X17395300D01*
Y4980663D01*
X17437601D01*
X17459894Y4983598D01*
X17480669Y4992203D01*
X17498508Y5005892D01*
X17512196Y5023731D01*
X17520802Y5044506D01*
X17522066Y5054100D01*
D02*
G37*
G36*
X17369901D02*
X17243135D01*
X17244398Y5044506D01*
X17253003Y5023731D01*
X17266692Y5005892D01*
X17284531Y4992203D01*
X17305305Y4983598D01*
X17327600Y4980663D01*
X17369901D01*
Y5054100D01*
D02*
G37*
G36*
X16869064Y5054100D02*
X16717300D01*
Y4980663D01*
X16784599D01*
X16806894Y4983598D01*
X16827669Y4992203D01*
X16845508Y5005892D01*
X16859196Y5023732D01*
X16867802Y5044506D01*
X16869064Y5054100D01*
D02*
G37*
G36*
X16691901D02*
X16540135D01*
X16541399Y5044506D01*
X16550003Y5023732D01*
X16563692Y5005892D01*
X16581532Y4992203D01*
X16602306Y4983598D01*
X16624600Y4980663D01*
X16691901D01*
Y5054100D01*
D02*
G37*
G36*
X17484448Y4331800D02*
X17460751D01*
X17437862Y4325666D01*
X17417339Y4313818D01*
X17400581Y4297061D01*
X17388734Y4276539D01*
X17382600Y4253649D01*
Y4229951D01*
X17388734Y4207061D01*
X17400581Y4186539D01*
X17417339Y4169782D01*
X17437862Y4157934D01*
X17460751Y4151800D01*
X17484448D01*
X17507339Y4157934D01*
X17527861Y4169782D01*
X17544618Y4186539D01*
X17556467Y4207061D01*
X17562601Y4229951D01*
Y4253649D01*
X17556467Y4276539D01*
X17544618Y4297061D01*
X17527861Y4313818D01*
X17507339Y4325666D01*
X17484448Y4331800D01*
D02*
G37*
G36*
X17437601Y3502937D02*
X17395300D01*
Y3429500D01*
X17522066D01*
X17520802Y3439094D01*
X17512196Y3459869D01*
X17498508Y3477708D01*
X17480669Y3491397D01*
X17459894Y3500002D01*
X17437601Y3502937D01*
D02*
G37*
G36*
X17369901D02*
X17327600D01*
X17305305Y3500002D01*
X17284531Y3491397D01*
X17266692Y3477708D01*
X17253003Y3459869D01*
X17244398Y3439094D01*
X17243135Y3429500D01*
X17369901D01*
Y3502937D01*
D02*
G37*
G36*
X16784599D02*
X16717300D01*
Y3429500D01*
X16869064D01*
X16867802Y3439094D01*
X16859196Y3459868D01*
X16845508Y3477708D01*
X16827669Y3491397D01*
X16806894Y3500002D01*
X16784599Y3502937D01*
D02*
G37*
G36*
X17522066Y3404100D02*
X17395300D01*
Y3330663D01*
X17437601D01*
X17459894Y3333598D01*
X17480669Y3342204D01*
X17498508Y3355892D01*
X17512196Y3373732D01*
X17520802Y3394506D01*
X17522066Y3404100D01*
D02*
G37*
G36*
X17369901D02*
X17243135D01*
X17244398Y3394506D01*
X17253003Y3373732D01*
X17266692Y3355892D01*
X17284531Y3342204D01*
X17305305Y3333598D01*
X17327600Y3330663D01*
X17369901D01*
Y3404100D01*
D02*
G37*
G36*
X16869064Y3404100D02*
X16717300D01*
Y3330663D01*
X16784599D01*
X16806894Y3333598D01*
X16827669Y3342204D01*
X16845508Y3355892D01*
X16859196Y3373732D01*
X16867802Y3394506D01*
X16869064Y3404100D01*
D02*
G37*
G36*
X16691901D02*
X16540135D01*
X16541399Y3394506D01*
X16550003Y3373732D01*
X16563692Y3355892D01*
X16581532Y3342204D01*
X16602306Y3333598D01*
X16624600Y3330663D01*
X16691901D01*
Y3404100D01*
D02*
G37*
G36*
X17289275Y3058300D02*
X17284700D01*
Y2895600D01*
X17447400D01*
Y2900175D01*
X17440659Y2934062D01*
X17427437Y2965983D01*
X17408241Y2994711D01*
X17383810Y3019142D01*
X17355083Y3038337D01*
X17323161Y3051559D01*
X17289275Y3058300D01*
D02*
G37*
G36*
X17259300D02*
X17254726D01*
X17220837Y3051559D01*
X17188918Y3038337D01*
X17160188Y3019142D01*
X17135757Y2994711D01*
X17116563Y2965983D01*
X17103342Y2934062D01*
X17096600Y2900175D01*
Y2895600D01*
X17259300D01*
Y3058300D01*
D02*
G37*
G36*
X17447400Y2870200D02*
X17284700D01*
Y2707500D01*
X17289275D01*
X17323161Y2714241D01*
X17355083Y2727463D01*
X17383810Y2746658D01*
X17408241Y2771089D01*
X17427437Y2799817D01*
X17440659Y2831738D01*
X17447400Y2865625D01*
Y2870200D01*
D02*
G37*
G36*
X17259300D02*
X17096600D01*
Y2865625D01*
X17103342Y2831738D01*
X17116563Y2799817D01*
X17135757Y2771089D01*
X17160188Y2746658D01*
X17188918Y2727463D01*
X17220837Y2714241D01*
X17254726Y2707500D01*
X17259300D01*
Y2870200D01*
D02*
G37*
%LPD*%
D10*
X13903400Y3600400D02*
D03*
X13953400D02*
D03*
X14003400D02*
D03*
X14053400D02*
D03*
X14103400D02*
D03*
X14153400D02*
D03*
X14203400D02*
D03*
X14253400D02*
D03*
X14303400D02*
D03*
X14353400D02*
D03*
X14403400D02*
D03*
X14453400D02*
D03*
X14503400D02*
D03*
X14553400D02*
D03*
X14603400D02*
D03*
X14653400D02*
D03*
X14703400D02*
D03*
X14753400D02*
D03*
X14803400D02*
D03*
X14853400D02*
D03*
X14903400D02*
D03*
X14953400D02*
D03*
X15003400D02*
D03*
X15053400D02*
D03*
X15103400D02*
D03*
Y5340400D02*
D03*
X15053400D02*
D03*
X15003400D02*
D03*
X14953400D02*
D03*
X14903400D02*
D03*
X14853400D02*
D03*
X14803400D02*
D03*
X14753400D02*
D03*
X14703400D02*
D03*
X14653400D02*
D03*
X14603400D02*
D03*
X14553400D02*
D03*
X14503400D02*
D03*
X14453400D02*
D03*
X14403400D02*
D03*
X14353400D02*
D03*
X14303400D02*
D03*
X14253400D02*
D03*
X14203400D02*
D03*
X14153400D02*
D03*
X14103400D02*
D03*
X14053400D02*
D03*
X14003400D02*
D03*
X13953400D02*
D03*
X13903400D02*
D03*
D11*
X15373399Y3870400D02*
D03*
Y3920400D02*
D03*
Y3970400D02*
D03*
Y4020400D02*
D03*
Y4070400D02*
D03*
Y4120400D02*
D03*
Y4170400D02*
D03*
Y4220400D02*
D03*
Y4270400D02*
D03*
Y4320400D02*
D03*
Y4370400D02*
D03*
Y4420400D02*
D03*
Y4470400D02*
D03*
Y4520400D02*
D03*
Y4570400D02*
D03*
Y4620400D02*
D03*
Y4670400D02*
D03*
Y4720400D02*
D03*
Y4770400D02*
D03*
Y4820400D02*
D03*
Y4870400D02*
D03*
Y4920400D02*
D03*
Y4970400D02*
D03*
Y5020400D02*
D03*
Y5070400D02*
D03*
X13633400D02*
D03*
Y5020400D02*
D03*
Y4970400D02*
D03*
Y4920400D02*
D03*
Y4870400D02*
D03*
Y4820400D02*
D03*
Y4770400D02*
D03*
Y4720400D02*
D03*
Y4670400D02*
D03*
Y4620400D02*
D03*
Y4570400D02*
D03*
Y4520400D02*
D03*
Y4470400D02*
D03*
Y4420400D02*
D03*
Y4370400D02*
D03*
Y4320400D02*
D03*
Y4270400D02*
D03*
Y4220400D02*
D03*
Y4170400D02*
D03*
Y4120400D02*
D03*
Y4070400D02*
D03*
Y4020400D02*
D03*
Y3970400D02*
D03*
Y3920400D02*
D03*
Y3870400D02*
D03*
D12*
X15853400Y7092000D02*
D03*
Y6102000D02*
D03*
X14663400D02*
D03*
Y7092000D02*
D03*
D13*
X15455901Y6597000D02*
D03*
Y6399500D02*
D03*
X15258400D02*
D03*
X15060899D02*
D03*
Y6597000D02*
D03*
X15258400Y6794500D02*
D03*
X15455901D02*
D03*
X15258400Y6597000D02*
D03*
D14*
X15060899Y6794500D02*
D03*
D15*
X14778400Y7087000D02*
D03*
X14858400D02*
D03*
X14938400D02*
D03*
X15018401D02*
D03*
X15098399D02*
D03*
X15178400D02*
D03*
X15258400D02*
D03*
X15338400D02*
D03*
X15418401D02*
D03*
X15498399D02*
D03*
X15578400D02*
D03*
X15658400D02*
D03*
X15738400D02*
D03*
Y6107000D02*
D03*
X15658400D02*
D03*
X15578400D02*
D03*
X15498399D02*
D03*
X15418401D02*
D03*
X15338400D02*
D03*
X15258400D02*
D03*
X15178400D02*
D03*
X15098399D02*
D03*
X15018401D02*
D03*
X14938400D02*
D03*
X14858400D02*
D03*
X14778400D02*
D03*
D16*
X15848399Y6997000D02*
D03*
Y6917000D02*
D03*
Y6837000D02*
D03*
Y6757000D02*
D03*
Y6677000D02*
D03*
Y6597000D02*
D03*
Y6517000D02*
D03*
Y6437000D02*
D03*
Y6357000D02*
D03*
Y6277000D02*
D03*
Y6197000D02*
D03*
X14668401D02*
D03*
Y6277000D02*
D03*
Y6357000D02*
D03*
Y6437000D02*
D03*
Y6517000D02*
D03*
Y6597000D02*
D03*
Y6677000D02*
D03*
Y6757000D02*
D03*
Y6837000D02*
D03*
Y6917000D02*
D03*
Y6997000D02*
D03*
D17*
X13421100Y7042900D02*
D03*
X13371100D02*
D03*
X13321100D02*
D03*
X13071100D02*
D03*
X13121100D02*
D03*
X13171100D02*
D03*
X13271100D02*
D03*
X13221100D02*
D03*
D18*
X13006100D02*
D03*
X13486099D02*
D03*
X12926100D02*
D03*
X13566100D02*
D03*
D19*
X16472701Y6210300D02*
D03*
X16598099D02*
D03*
X13920001Y5626100D02*
D03*
X14045399D02*
D03*
X16598099Y6413500D02*
D03*
X16472701D02*
D03*
X12713501Y5257800D02*
D03*
X12838899D02*
D03*
X12713501Y5473700D02*
D03*
X12838899D02*
D03*
D20*
X13689900Y6197600D02*
D03*
X17525301Y5626100D02*
D03*
X12319000Y3771900D02*
D03*
X17499899Y6591300D02*
D03*
X13702600Y3022600D02*
D03*
D21*
X13030901Y5968600D02*
D03*
Y6197600D02*
D03*
X16866299Y5397100D02*
D03*
Y5626100D02*
D03*
X11660000Y3542900D02*
D03*
Y3771900D02*
D03*
X16840900Y6362300D02*
D03*
Y6591300D02*
D03*
X13043600Y2793600D02*
D03*
Y3022600D02*
D03*
D22*
X13030901Y6426600D02*
D03*
X16866299Y5855100D02*
D03*
X11660000Y4000900D02*
D03*
X16840900Y6820300D02*
D03*
X13043600Y3251600D02*
D03*
D23*
X12039600Y6857000D02*
D03*
Y6477000D02*
D03*
X12293600Y6857000D02*
D03*
X11785600D02*
D03*
Y6477000D02*
D03*
X12293600D02*
D03*
D24*
X14084300Y6629500D02*
D03*
Y6794500D02*
D03*
X16128999Y6775500D02*
D03*
Y6940500D02*
D03*
D25*
X14395399Y2895600D02*
D03*
X14230400D02*
D03*
D26*
X16268700Y6403616D02*
D03*
Y6248400D02*
D03*
X13055600Y5294492D02*
D03*
Y5449708D02*
D03*
D27*
X12344400Y5951200D02*
D03*
Y5871200D02*
D03*
Y5791200D02*
D03*
Y5711200D02*
D03*
Y5631200D02*
D03*
Y5551200D02*
D03*
Y5471200D02*
D03*
Y5391200D02*
D03*
X11504400D02*
D03*
Y5471200D02*
D03*
Y5551200D02*
D03*
Y5631200D02*
D03*
Y5711200D02*
D03*
Y5791200D02*
D03*
Y5871200D02*
D03*
Y5951200D02*
D03*
D28*
X12204400Y5251200D02*
D03*
X12124400D02*
D03*
X12044400D02*
D03*
X11964400D02*
D03*
X11884400D02*
D03*
X11804400D02*
D03*
X11724400D02*
D03*
X11644400D02*
D03*
Y6091200D02*
D03*
X11724400D02*
D03*
X11804400D02*
D03*
X11884400D02*
D03*
X11964400D02*
D03*
X12044400D02*
D03*
X12124400D02*
D03*
X12204400D02*
D03*
D29*
X15900400Y3125801D02*
D03*
Y3251200D02*
D03*
X15684500Y3125001D02*
D03*
Y3250399D02*
D03*
X15468600Y3125801D02*
D03*
Y3251200D02*
D03*
X15252699Y3125801D02*
D03*
Y3251200D02*
D03*
X15036800Y3125801D02*
D03*
Y3251200D02*
D03*
X14820900Y3125801D02*
D03*
Y3251200D02*
D03*
X12103100Y4331501D02*
D03*
Y4456899D02*
D03*
X11874500Y4331501D02*
D03*
Y4456899D02*
D03*
X15646400Y5041099D02*
D03*
Y4915701D02*
D03*
D30*
X15863708Y3467100D02*
D03*
X15708492D02*
D03*
X12066408Y4673600D02*
D03*
X11911192D02*
D03*
D31*
X14097000Y7088200D02*
D03*
Y7288200D02*
D03*
X16154401Y7215200D02*
D03*
Y7415200D02*
D03*
D32*
X16444600Y3841800D02*
D03*
Y3891800D02*
D03*
Y3941800D02*
D03*
Y3991800D02*
D03*
Y4041800D02*
D03*
Y4091800D02*
D03*
Y4141800D02*
D03*
Y4191800D02*
D03*
Y4241800D02*
D03*
Y4291800D02*
D03*
Y4341800D02*
D03*
Y4391800D02*
D03*
Y4441800D02*
D03*
Y4491800D02*
D03*
Y4541800D02*
D03*
Y4591800D02*
D03*
Y4641800D02*
D03*
Y4691800D02*
D03*
Y4741800D02*
D03*
Y4791800D02*
D03*
D33*
X13156700Y4140200D02*
D03*
X12776700D02*
D03*
X13156700Y3886200D02*
D03*
Y4394200D02*
D03*
X12776700D02*
D03*
Y3886200D02*
D03*
D34*
X14201801Y3124200D02*
D03*
X14401801D02*
D03*
D35*
X14171848Y3873500D02*
X14173199D01*
X14168747Y3870400D02*
X14171848Y3873500D01*
X13538400Y3870400D02*
X14168747D01*
X14770100Y3822700D02*
X14803400Y3789400D01*
Y3424200D02*
Y3789400D01*
X15373399Y3870400D02*
X15941600D01*
X16548100Y3263900D01*
X15074899Y3920400D02*
X15125700D01*
X14605974D02*
X15074899D01*
X15468600Y3526700D01*
X15125700Y3920400D02*
X15373399D01*
X15125700Y5029200D02*
X15168216Y5071716D01*
X15221466Y5070400D02*
X15373399D01*
X15220151Y5071716D02*
X15221466Y5070400D01*
X15168216Y5071716D02*
X15220151D01*
X15125700Y3920400D02*
Y5029200D01*
X15646400Y5041099D02*
X16485400D01*
X16573500Y4953000D01*
X14666158Y6679243D02*
X14668401Y6677000D01*
X14504356Y6679243D02*
X14666158D01*
X14503400Y6680200D02*
X14504356Y6679243D01*
X14662357Y6603043D02*
X14668401Y6597000D01*
X14504356Y6603043D02*
X14662357D01*
X14503400Y6604000D02*
X14504356Y6603043D01*
X14453400Y5118900D02*
Y5340400D01*
X14401801Y5067300D02*
X14453400Y5118900D01*
X14403400Y5145100D02*
Y5340400D01*
X14363699Y5105400D02*
X14403400Y5145100D01*
X14353400Y5340400D02*
Y5435400D01*
X14358400Y5440400D01*
Y5582700D01*
X13804900Y5449708D02*
X13889091D01*
X14287500Y6438900D02*
X14288853D01*
X14290753Y6437000D01*
X14668401D01*
X12044400Y6091200D02*
X12061900Y6108700D01*
Y6181800D01*
X12128500Y6248400D01*
X11644400Y6715800D02*
X11785600Y6857000D01*
X11644400Y6091200D02*
Y6715800D01*
X11884400Y6091200D02*
Y6207500D01*
X11963400Y6286500D01*
X13006100Y7042900D02*
X13026100Y7062900D01*
Y7112826D01*
X13139574Y7226300D01*
X13352626D01*
X13466100Y7112826D01*
Y7062900D02*
Y7112826D01*
Y7062900D02*
X13486099Y7042900D01*
X11723057Y5249857D02*
X11724400Y5251200D01*
X11723057Y5055557D02*
Y5249857D01*
X11722100Y5054600D02*
X11723057Y5055557D01*
X11873699Y4457700D02*
X11874500Y4456899D01*
X11760200Y4457700D02*
X11873699D01*
X11709400Y4229100D02*
Y4406900D01*
X11760200Y4457700D01*
X12776700Y3886200D02*
X12840199Y3949700D01*
X12941299D01*
X13747701Y3600400D02*
X13903400D01*
X12484100Y5257800D02*
X12713501D01*
X11785600Y6857000D02*
X11855600Y6787000D01*
Y6724500D02*
Y6787000D01*
Y6724500D02*
X11899900Y6680200D01*
X11963400Y5252200D02*
X11964400Y5251200D01*
X11963400Y5252200D02*
Y5384095D01*
X11963047Y5384447D02*
X11963400Y5384095D01*
X11874500Y5435600D02*
X11976100D01*
X12953999Y4191500D02*
X13156700Y4394200D01*
X12953999Y4076700D02*
Y4191500D01*
X13017500Y4013200D02*
X13322301D01*
X12953999Y4076700D02*
X13017500Y4013200D01*
X13415100Y3920400D02*
X13633400D01*
X13322301Y4013200D02*
X13415100Y3920400D01*
X13633400D02*
X14202499D01*
X14303400Y3600400D02*
Y3819500D01*
X14202499Y3920400D02*
X14303400Y3819500D01*
X14224985Y3784600D02*
X14253400Y3756184D01*
Y3600400D02*
Y3756184D01*
X13893800Y3784600D02*
X14224985D01*
X14303400Y3600400D02*
X14353400D01*
X14401801Y3124200D02*
Y3319183D01*
X14353065Y3367917D02*
X14401801Y3319183D01*
X14353065Y3367917D02*
Y3600066D01*
X14353400Y3600400D01*
X12649200Y3683000D02*
X13792200D01*
X13893800Y3784600D01*
X12573000Y3759200D02*
X12649200Y3683000D01*
X12573000Y3759200D02*
Y3936500D01*
X12776700Y4140200D01*
X13414500Y3746500D02*
X13538400Y3870400D01*
X12916400Y3746500D02*
X13414500D01*
X12776700Y3886200D02*
X12916400Y3746500D01*
X14848399Y6097000D02*
X14858400Y6107000D01*
X14848399Y6072700D02*
Y6097000D01*
X14358400Y5582700D02*
X14848399Y6072700D01*
X14303400Y5340400D02*
Y5623200D01*
X14757201Y6077000D02*
X14768401D01*
X14778400Y6087000D02*
Y6107000D01*
X14768401Y6077000D02*
X14778400Y6087000D01*
X14303400Y5623200D02*
X14757201Y6077000D01*
X14819299Y3124200D02*
X14820900Y3125801D01*
X14719299Y3124200D02*
X14819299D01*
X14706599Y3136900D02*
Y3327400D01*
Y3136900D02*
X14719299Y3124200D01*
X14706599Y3327400D02*
X14803400Y3424200D01*
X16444600Y4741800D02*
X16743300D01*
X16751300Y4749800D01*
X16444600Y4591800D02*
X16820399D01*
X16827499Y4584700D01*
X16314174Y4637800D02*
X16440601D01*
X15888600Y4672700D02*
X15989897Y4571403D01*
X16008704Y4616803D02*
X16293176D01*
X16314174Y4637800D01*
X16440601D02*
X16444600Y4641800D01*
X15989897Y4571403D02*
X16288571D01*
X15907405Y4718100D02*
X16008704Y4616803D01*
X16288571Y4571403D02*
X16314174Y4545800D01*
X16444600Y4441800D02*
X16811600D01*
X16814799Y4445000D01*
X16444600Y4291800D02*
X16801300D01*
X16802100Y4292600D01*
X16444600Y4141800D02*
X16800500D01*
X16802100Y4140200D01*
X16447800Y4038600D02*
X16828484D01*
X16840199Y4050316D01*
Y4051300D01*
X16334599Y3995800D02*
X16338600Y3991800D01*
X16444600Y4041800D02*
X16447800Y4038600D01*
X16284599Y4019100D02*
X16307899Y3995800D01*
X16334599D01*
X16307899Y4087800D02*
X16440601D01*
X16338600Y3991800D02*
X16444600D01*
X15938705Y4064500D02*
X16284599D01*
X15919901Y4019100D02*
X16284599D01*
Y4064500D02*
X16307899Y4087800D01*
X14953400Y3397753D02*
Y3600400D01*
X14947900Y3392253D02*
X14953400Y3397753D01*
X14947900Y3390900D02*
Y3392253D01*
X12044400Y5251200D02*
Y5367300D01*
X11976100Y5435600D02*
X12044400Y5367300D01*
X14553400Y3867826D02*
X14605974Y3920400D01*
X14408400Y3722826D02*
X14553400Y3867826D01*
Y3600400D02*
Y3867826D01*
X14408400Y3605400D02*
Y3722826D01*
X14403400Y3600400D02*
X14408400Y3605400D01*
X16078200Y5994400D02*
Y6132266D01*
X15933466Y6277000D02*
X16078200Y6132266D01*
X15848399Y6277000D02*
X15933466D01*
X15122012Y5482713D02*
X15214600Y5575300D01*
X14928287Y5482713D02*
X15122012D01*
X15843657Y6361743D02*
X15848399Y6357000D01*
X15698157Y6361743D02*
X15843657D01*
X15697200Y6362700D02*
X15698157Y6361743D01*
X13321100Y7000400D02*
Y7042900D01*
X13176100Y6972974D02*
Y6995400D01*
X13216100Y7167710D02*
X13221100Y7162710D01*
Y7042900D02*
Y7162710D01*
X13171100Y7000400D02*
Y7042900D01*
X13316100Y6972974D02*
Y6995400D01*
X13171100Y7000400D02*
X13176100Y6995400D01*
X13316100D02*
X13321100Y7000400D01*
X13216100Y7167710D02*
Y7169063D01*
X13271300Y7175300D02*
X13271500Y7175500D01*
X13271100Y7042900D02*
X13271300Y7043100D01*
Y7175300D01*
X12496095Y5434895D02*
X12496800D01*
X12469700Y5408500D02*
X12496095Y5434895D01*
X12361700Y5408500D02*
X12469700D01*
X12344400Y5391200D02*
X12361700Y5408500D01*
X12331700Y5378500D02*
X12344400Y5391200D01*
X12464284Y5467703D02*
X12464697D01*
X12344400Y5471200D02*
X12361700Y5453900D01*
X12450482D02*
X12464284Y5467703D01*
X12361700Y5453900D02*
X12450482D01*
X13280516Y6955400D02*
X13298526D01*
X13176100Y6972974D02*
X13193674Y6955400D01*
X13298526D02*
X13316100Y6972974D01*
X13223399Y6886100D02*
Y6943684D01*
X13093700Y6756400D02*
X13223399Y6886100D01*
X13193674Y6955400D02*
X13211684D01*
X13223399Y6943684D01*
X13268800D02*
X13280516Y6955400D01*
X13125803Y6724297D02*
X13268800Y6867295D01*
Y6943684D01*
X12852400Y6731000D02*
X13068300Y6946900D01*
Y7040100D01*
X12293600Y6731000D02*
X12852400D01*
X12762543Y5868357D02*
X12928600Y5702300D01*
X13068300Y7040100D02*
X13071100Y7042900D01*
X12039600Y6477000D02*
X12293600Y6731000D01*
X13356953Y4170400D02*
X13633400D01*
X13349052Y4178300D02*
X13356953Y4170400D01*
X13347701Y4178300D02*
X13349052D01*
X13358553Y4270400D02*
X13633400D01*
X13349052Y4279900D02*
X13358553Y4270400D01*
X13347701Y4279900D02*
X13349052D01*
X11798300Y5245100D02*
X11804400Y5251200D01*
X11798300Y5041900D02*
Y5245100D01*
X11644400Y5119600D02*
Y5251200D01*
Y5119600D02*
X11645900Y5118100D01*
X11724400Y6091200D02*
X11741900Y6108700D01*
Y6179300D01*
X12039600Y6477000D01*
X13889091Y5449708D02*
X13903400Y5435400D01*
Y5340400D02*
Y5435400D01*
X12725400Y5791200D02*
X12915900Y5600700D01*
X11734800Y4940300D02*
X12966701D01*
X13481601Y4425400D01*
X11506200Y5168900D02*
X11734800Y4940300D01*
X12344400Y5791200D02*
X12725400D01*
X12347244Y5868357D02*
X12762543D01*
X12344400Y5871200D02*
X12347244Y5868357D01*
X13296899Y4927600D02*
Y5003800D01*
Y4927600D02*
X13454100Y4770400D01*
X13628400Y4825400D02*
X13633400Y4820400D01*
X13500700Y4825400D02*
X13628400D01*
X13436600Y4889500D02*
X13500700Y4825400D01*
X13454100Y4770400D02*
X13633400D01*
X16305447Y6591300D02*
X16306799D01*
X16299747Y6597000D02*
X16305447Y6591300D01*
X15848399Y6597000D02*
X16299747D01*
X15848399Y6677000D02*
X15850642Y6679243D01*
X16204243D01*
X16205200Y6680200D01*
X15988699Y5155600D02*
X15989301Y5156200D01*
X15988100Y5155000D02*
X15988699Y5155600D01*
X15587137Y5232400D02*
X16116299D01*
X15555138Y5200400D02*
X15587137Y5232400D01*
X15003400Y5340400D02*
X15008400Y5335400D01*
Y5217974D02*
Y5335400D01*
X14958400Y5203769D02*
Y5240400D01*
X15025974Y5200400D02*
X15555138D01*
X14953400Y5245400D02*
X14958400Y5240400D01*
Y5203769D02*
X15007169Y5155000D01*
X15988100D01*
X15008400Y5217974D02*
X15025974Y5200400D01*
X14953400Y5245400D02*
Y5340400D01*
X14903400D02*
Y5435400D01*
X14908400Y5440400D02*
Y5462826D01*
X14903400Y5435400D02*
X14908400Y5440400D01*
X14853400Y5340400D02*
Y5435400D01*
X14891759Y5638800D02*
X15392400D01*
X14603400Y5543057D02*
X14851543Y5791200D01*
X14853400Y5435400D02*
X14858400Y5440400D01*
X14753400Y5340400D02*
Y5500442D01*
X14553400Y5557262D02*
X14838138Y5842000D01*
X14753400Y5500442D02*
X14891759Y5638800D01*
X14883752Y5695000D02*
X15334300D01*
X14838138Y5842000D02*
X15239294D01*
X14503400Y5571467D02*
X14824733Y5892800D01*
X14703400Y5340400D02*
Y5514647D01*
X14553400Y5340400D02*
Y5557262D01*
X14703400Y5514647D02*
X14883752Y5695000D01*
X14803400Y5486236D02*
X14892464Y5575300D01*
X14908400Y5462826D02*
X14928287Y5482713D01*
X14892464Y5575300D02*
X14998700D01*
X14503400Y5340400D02*
Y5571467D01*
X14803400Y5340400D02*
Y5486236D01*
X14909482Y5528113D02*
X15074899D01*
X14824733Y5892800D02*
X15201900D01*
X14858400Y5440400D02*
Y5477031D01*
X14864948Y5740400D02*
X15278101D01*
X14851543Y5791200D02*
X15252699D01*
X14653400Y5528852D02*
X14864948Y5740400D01*
X14858400Y5477031D02*
X14909482Y5528113D01*
X14653400Y5340400D02*
Y5528852D01*
X14603400Y5340400D02*
Y5543057D01*
X15392400Y5638800D02*
X15659100Y5905500D01*
Y6106300D01*
X15098399Y6107000D02*
X15099350Y6106050D01*
Y5982650D02*
Y6106050D01*
Y5982650D02*
X15100301Y5981700D01*
X12965994Y4876800D02*
X13472395Y4370400D01*
X11633200Y4876800D02*
X12965994D01*
X13481601Y4425400D02*
X13628400D01*
X13472395Y4370400D02*
X13633400D01*
X11328400Y4978400D02*
Y5525484D01*
X11354116Y5551200D02*
X11504400D01*
X11328400Y5525484D02*
X11354116Y5551200D01*
X11328400Y4978400D02*
X11480800Y4826000D01*
X11379200Y5130800D02*
Y5413426D01*
Y5130800D02*
X11633200Y4876800D01*
X11379200Y5413426D02*
X11419474Y5453700D01*
X12927325Y4826000D02*
X13432925Y4320400D01*
X13633400D01*
X11480800Y4826000D02*
X12927325D01*
X11486900Y5453700D02*
X11504400Y5471200D01*
X11419474Y5453700D02*
X11486900D01*
X11506200Y5168900D02*
Y5389400D01*
X11504400Y5391200D02*
X11506200Y5389400D01*
X13628400Y4425400D02*
X13633400Y4420400D01*
X15239294Y5842000D02*
X15341600Y5944305D01*
X15201900Y5892800D02*
X15258400Y5949300D01*
X16058099Y4719100D02*
X16290874D01*
X16023305Y4818100D02*
X16076904Y4764500D01*
X16290874D01*
X16004500Y4772700D02*
X16058099Y4719100D01*
X16440601Y4695800D02*
X16444600Y4691800D01*
X16290874Y4719100D02*
X16314174Y4695800D01*
X16440601D01*
Y4787800D02*
X16444600Y4791800D01*
X16314174Y4787800D02*
X16440601D01*
X16290874Y4764500D02*
X16314174Y4787800D01*
X15373399Y4820400D02*
X15375700Y4818100D01*
X16023305D01*
X15373399Y4770400D02*
X15375700Y4772700D01*
X16004500D01*
X15373399Y5020400D02*
X15625700D01*
X15646400Y5041099D01*
X15373399Y4970400D02*
X15589001D01*
X15643700Y4915701D01*
X15646400D01*
X13953368Y5498780D02*
X13953400Y5498747D01*
X13953368Y5498780D02*
Y5590034D01*
X13920001Y5623400D02*
X13953368Y5590034D01*
X13953400Y5340400D02*
Y5498747D01*
X14003400Y5340400D02*
Y5581401D01*
X14045399Y5623400D01*
Y5626100D01*
X15334300Y5695000D02*
X15582899Y5943600D01*
X15278101Y5740400D02*
X15506700Y5969000D01*
X15658400Y6107000D02*
X15659100Y6106300D01*
X15578400Y6107000D02*
X15582899Y6102500D01*
Y5943600D02*
Y6102500D01*
X15498399Y6107000D02*
X15506700Y6098700D01*
Y5969000D02*
Y6098700D01*
X15341600Y5944305D02*
Y6103800D01*
X15418401Y5956900D02*
Y6107000D01*
X15252699Y5791200D02*
X15418401Y5956900D01*
X15338400Y6107000D02*
X15341600Y6103800D01*
X15258400Y5949300D02*
Y6107000D01*
X15881703Y4121503D02*
X15938705Y4064500D01*
X15849600Y4089400D02*
X15919901Y4019100D01*
X14155701Y4868195D02*
Y5338100D01*
X14153400Y5340400D02*
X14155701Y5338100D01*
Y4868195D02*
X14953897Y4069997D01*
X14201100Y5338100D02*
X14203400Y5340400D01*
X14201100Y4887000D02*
Y5338100D01*
Y4887000D02*
X14986000Y4102100D01*
X16440601Y4087800D02*
X16444600Y4091800D01*
X14395399Y2895600D02*
X14553400Y3053600D01*
Y3600400D01*
X16440601Y4545800D02*
X16444600Y4541800D01*
X16314174Y4545800D02*
X16440601D01*
X15373399Y4720400D02*
X15375700Y4718100D01*
X15907405D01*
X15373399Y4670400D02*
X15375700Y4672700D01*
X15888600D01*
X15772701Y4572700D02*
X15926398Y4419003D01*
X16290874Y4419100D02*
X16314174Y4395800D01*
X16440601D01*
X16444600Y4391800D01*
X16440601Y4487800D02*
X16444600Y4491800D01*
X16133150Y4419003D02*
X16133247Y4419100D01*
X16290874D01*
Y4464500D02*
X16314174Y4487800D01*
X16114345Y4464403D02*
X16114442Y4464500D01*
X16290874D01*
X15926398Y4419003D02*
X16133150D01*
X15945203Y4464403D02*
X16114345D01*
X16314174Y4487800D02*
X16440601D01*
X15373399Y4620400D02*
X15375700Y4618100D01*
X15791505D01*
X15945203Y4464403D01*
X15373399Y4570400D02*
X15375700Y4572700D01*
X15772701D01*
X15879205Y4314500D02*
X16290874D01*
X15675604Y4518100D02*
X15879205Y4314500D01*
X16314174Y4337800D02*
X16440601D01*
X16290874Y4314500D02*
X16314174Y4337800D01*
X15860400Y4269100D02*
X16290874D01*
X16440601Y4337800D02*
X16444600Y4341800D01*
X16440601Y4245800D02*
X16444600Y4241800D01*
X16290874Y4269100D02*
X16314174Y4245800D01*
X16440601D01*
X15656799Y4472700D02*
X15860400Y4269100D01*
X15373399Y4520400D02*
X15375700Y4518100D01*
X15675604D01*
X15373399Y4470400D02*
X15375700Y4472700D01*
X15656799D01*
D36*
X12764000Y4406900D02*
X12776700Y4394200D01*
X12585700Y4406900D02*
X12764000D01*
X15738400Y7092000D02*
X15853400D01*
X14663400D02*
X14778400D01*
X14665900Y6997000D02*
Y7089500D01*
X14663400Y6102000D02*
Y6197000D01*
X12070189Y4673600D02*
X12346368D01*
X12319000Y3771900D02*
Y3883638D01*
X12346368Y4673600D02*
X12369800Y4650168D01*
X12319000Y3883638D02*
X12369800Y3934438D01*
Y4650168D01*
X12103100Y4331501D02*
X12105800D01*
X12151991Y4377692D01*
X12158975D01*
X12183707Y4402424D01*
Y4487507D01*
X12261850Y4565650D01*
X15900400Y3125801D02*
X15903101D01*
X16006300Y3022600D01*
X16040100D01*
X15468600Y3251200D02*
Y3526700D01*
X13043600Y2793600D02*
X13194901D01*
X13284200Y2882900D01*
X13030901Y5968600D02*
X13309200D01*
X13309599Y5969000D01*
X12687300Y6858000D02*
Y6997700D01*
X12674600Y7010400D02*
X12687300Y6997700D01*
X12864700Y6426600D02*
X13030901D01*
X12687300Y6604000D02*
X12864700Y6426600D01*
X13055600Y5449708D02*
X13804900D01*
Y6350100D02*
X14084300Y6629500D01*
X13804900Y5449708D02*
Y6350100D01*
X13920001Y5623400D02*
Y5626100D01*
Y5944401D01*
X14077600Y6102000D01*
X14663400D01*
X16840900Y6362300D02*
X17107300D01*
X17132300Y6337300D01*
X16866299Y5397100D02*
X17131900D01*
X17132300Y5397500D01*
X15853400Y6102000D02*
X16573500Y5381900D01*
Y5194300D02*
Y5381900D01*
X11785600Y6857000D02*
X11836400Y6907800D01*
Y7454900D01*
X13055600Y5290711D02*
X13063110Y5283200D01*
X13423900D01*
X13689900Y5815900D02*
Y6197600D01*
X13423900Y5549900D02*
X13689900Y5815900D01*
X12636900Y3251600D02*
X13043600D01*
X12407900Y3022600D02*
X12636900Y3251600D01*
X12129500Y5792200D02*
X12210500Y5711200D01*
X11964400Y5957300D02*
X12129500Y5792200D01*
X11724400Y5679200D02*
X11837400Y5792200D01*
X12129500D01*
X11724400Y5251200D02*
Y5679200D01*
X12210500Y5711200D02*
X12344400D01*
X17551401Y5181600D02*
X17665700Y5295900D01*
Y6324600D01*
X17551401Y5168900D02*
Y5181600D01*
X16002000Y7184032D02*
Y7391769D01*
X16025430Y7415200D02*
X16154401D01*
X16002000Y7391769D02*
X16025430Y7415200D01*
X15853400Y7092000D02*
X15868401Y7107000D01*
X15924969D01*
X16002000Y7184032D01*
X16122701Y6781800D02*
X16128999Y6775500D01*
X15989301Y6781800D02*
X16122701D01*
X14478000D02*
X14533200Y6837000D01*
X14325700Y6629500D02*
X14478000Y6781800D01*
X12926100Y7042900D02*
Y7061650D01*
X12916100Y7071650D02*
X12926100Y7061650D01*
X12841817Y7071650D02*
X12916100D01*
X12814101Y7099367D02*
X12841817Y7071650D01*
X12814101Y7099367D02*
Y7100400D01*
X14665900Y6997000D02*
X14668401D01*
X14663400Y7092000D02*
X14665900Y7089500D01*
X14668401Y6917000D02*
Y6997000D01*
X14938400Y6192000D02*
Y6277000D01*
Y6107000D02*
Y6192000D01*
X14668401Y6197000D02*
X14933400D01*
X14938400Y6192000D01*
X14663400Y6197000D02*
X14668401D01*
X14938400Y6277000D02*
X15060899Y6399500D01*
X16586200Y5626100D02*
X16866299D01*
X16268700Y5943600D02*
X16586200Y5626100D01*
X16268700Y5943600D02*
Y6243211D01*
Y6248400D01*
X16866299Y5626100D02*
X17525301D01*
X16866299Y5855100D02*
Y5942099D01*
X16618706Y6189693D02*
X16866299Y5942099D01*
X16616006Y6189693D02*
X16618706D01*
X16598099Y6207600D02*
X16616006Y6189693D01*
X16598099Y6207600D02*
Y6210300D01*
X17272000Y7429500D02*
X17321748Y7379751D01*
X17474149D01*
X17665700Y7188200D01*
Y6324600D02*
Y7188200D01*
X17424400Y6299200D02*
X17640300D01*
X17665700Y6324600D01*
X16751300Y6464300D02*
X17259300D01*
X17424400Y6299200D01*
X16598099Y6413500D02*
X16700500D01*
X16751300Y6464300D01*
X16840900Y6820300D02*
Y6998400D01*
X17272000Y7429500D01*
X16154401Y7415200D02*
X16168700Y7429500D01*
X17272000D01*
X12776700Y4394200D02*
X13156700D01*
X12415908Y2793600D02*
X13043600D01*
X11666608Y3542900D02*
X12415908Y2793600D01*
X11660000Y3542900D02*
X11666608D01*
X11653392Y4000900D02*
X11660000D01*
X11629785Y3977293D02*
X11653392Y4000900D01*
X11629785Y3970685D02*
Y3977293D01*
X11417300Y3758200D02*
X11629785Y3970685D01*
X11417300Y3403600D02*
X11912600Y2908300D01*
X11417300Y3403600D02*
Y3758200D01*
X11660000Y4000900D02*
X11666608D01*
X11874500Y4208792D01*
Y4331501D01*
X11836400Y7454900D02*
X12598400D01*
X14097000Y7288200D02*
X14098599Y7289800D01*
X14085899Y7277100D02*
X14097000Y7288200D01*
X13931900Y7277100D02*
X14085899D01*
X13678101Y7100400D02*
Y7105583D01*
X13705817Y7133300D01*
X13788100D01*
X13931900Y7277100D01*
X13566100Y7042900D02*
Y7061650D01*
X13576100Y7071650D01*
X13650383D01*
X13678101Y7099367D01*
Y7100400D01*
X13030901Y6197600D02*
X13689900D01*
X16395700Y6540500D02*
Y6732968D01*
X16128999Y6775500D02*
X16353168D01*
X16395700Y6732968D01*
X16370300Y6515100D02*
X16395700Y6540500D01*
X16472701Y6567869D02*
X16496132Y6591300D01*
X16840900D01*
X16472701Y6413500D02*
Y6567869D01*
X16139731Y6515100D02*
X16370300D01*
X16116299Y6299200D02*
Y6491669D01*
X16139731Y6515100D01*
X16116299Y6299200D02*
X16154401Y6261100D01*
X16256000D02*
X16268700Y6248400D01*
X16154401Y6261100D02*
X16256000D01*
X12814101Y7484519D02*
Y7518400D01*
X12784481Y7454900D02*
X12814101Y7484519D01*
X14439900Y7258932D02*
Y7266369D01*
X14098599Y7289800D02*
X14416467D01*
X14439900Y7266369D01*
X14648399Y7107000D02*
X14663400Y7092000D01*
X14591830Y7107000D02*
X14648399D01*
X14439900Y7258932D02*
X14591830Y7107000D01*
X14778400Y7087000D02*
Y7092000D01*
Y7087000D02*
X14858400D01*
X14938400D01*
X15018401D01*
Y6837000D02*
Y7087000D01*
Y6837000D02*
X15060899Y6794500D01*
X15018401Y7087000D02*
X15098399D01*
X15178400D01*
X15258400D02*
X15338400D01*
X15178400D02*
X15258400D01*
Y6794500D02*
Y7087000D01*
X15338400D02*
X15418401D01*
X15498399D01*
X15578400D01*
X15658400D01*
X15738400D01*
Y7092000D01*
X13702600Y2913708D02*
Y3022600D01*
Y2913708D02*
X13860408Y2755900D01*
X16090900D01*
X16154401Y2819400D02*
Y3073400D01*
X16090900Y2755900D02*
X16154401Y2819400D01*
X15900400Y3251200D02*
X15918307Y3233293D01*
X15994507D01*
X16154401Y3073400D01*
X12344400Y5711200D02*
X12348200Y5715000D01*
X12522200D01*
X12623800Y5613400D02*
X12801601D01*
X12522200Y5715000D02*
X12623800Y5613400D01*
X12838899Y5473700D02*
Y5576101D01*
X12801601Y5613400D02*
X12838899Y5576101D01*
X11827832Y5930900D02*
X11938000D01*
X11804400Y5954331D02*
Y6091200D01*
Y5954331D02*
X11827832Y5930900D01*
X11964400Y5957300D02*
Y6091200D01*
X11938000Y5930900D02*
X11964400Y5957300D01*
X12103532Y6311900D02*
X12244768D01*
X12268200Y6451600D02*
X12293600Y6477000D01*
X12268200Y6335332D02*
Y6451600D01*
X12244768Y6311900D02*
X12268200Y6335332D01*
X11964400Y6091200D02*
X11971900Y6098700D01*
Y6180268D01*
X12103532Y6311900D01*
X13043600Y3022600D02*
X13702600D01*
X14533200Y6837000D02*
X14668401D01*
X14084300Y6629500D02*
X14325700D01*
X16840900Y6591300D02*
X17499899D01*
X13486099Y6897400D02*
Y7042900D01*
Y6897400D02*
X13753999Y6629500D01*
X14084300D01*
Y6794500D02*
Y7075500D01*
X14097000Y7088200D01*
X16128999Y6940500D02*
Y7189800D01*
X16154401Y7215200D01*
X15258400Y6794500D02*
X15455901D01*
Y6597000D02*
Y6794500D01*
X15258400Y6597000D02*
X15455901D01*
X15060899D02*
X15258400D01*
X15060899Y6399500D02*
Y6597000D01*
Y6399500D02*
X15258400D01*
X15455901D01*
X16598099Y6210300D02*
Y6413500D01*
X16301611Y6210300D02*
X16472701D01*
X16268700Y6243211D02*
X16301611Y6210300D01*
X16278584Y6413500D02*
X16472701D01*
X16268700Y6403616D02*
X16278584Y6413500D01*
X15684500Y3125001D02*
X15684900Y3125401D01*
X15900000D01*
X15900400Y3125801D01*
X15468600D02*
X15469000Y3125401D01*
X15684100D01*
X15684500Y3125001D01*
X15252699Y3125801D02*
X15468600D01*
X15036800D02*
X15252699D01*
X14820900D02*
X15036800D01*
X11874500Y4331501D02*
X12103100D01*
X12713501Y5257800D02*
Y5473700D01*
X12838899Y5257800D02*
X13022688D01*
X13055600Y5290711D01*
X12838899Y5473700D02*
X13031609D01*
X13055600Y5449708D01*
X11660000Y3771900D02*
X12319000D01*
X12066408Y4673600D02*
X12070189D01*
X12103100Y4456899D02*
Y4640689D01*
X12070189Y4673600D02*
X12103100Y4640689D01*
X11874500Y4456899D02*
Y4640689D01*
X11907411Y4673600D01*
X11911192D01*
X14230400Y2895600D02*
Y3095600D01*
X14201801Y3124200D02*
X14230400Y3095600D01*
X15863708Y3285192D02*
Y3467100D01*
Y3285192D02*
X15897701Y3251200D01*
X15900400D01*
X15684500Y3250399D02*
Y3443108D01*
X15708492Y3467100D01*
X15468600Y3251200D02*
X15469000Y3250800D01*
X15684100D01*
X15684500Y3250399D01*
X15252699Y3251200D02*
X15468600D01*
X15036800D02*
X15252699D01*
X14820900D02*
X15036800D01*
D37*
X12552974Y5050000D02*
X12603000Y5100026D01*
Y5156200D01*
X12195666Y5050000D02*
X12552974D01*
X12547600Y5122974D02*
Y5156200D01*
X12192100Y5238900D02*
X12204400Y5251200D01*
X12192100Y5131913D02*
Y5238900D01*
X12530026Y5105400D02*
X12547600Y5122974D01*
X12218613Y5105400D02*
X12530026D01*
X12192100Y5131913D02*
X12218613Y5105400D01*
X12124400Y5251200D02*
X12136700Y5238900D01*
Y5108966D02*
Y5238900D01*
Y5108966D02*
X12195666Y5050000D01*
D38*
X17780000Y2870200D02*
Y7493000D01*
X17449800Y2540000D02*
X17780000Y2870200D01*
X11557000Y2540000D02*
X17449800D01*
X11264900Y2832100D02*
X11557000Y2540000D01*
X11264900Y2832100D02*
Y3022600D01*
Y7531100D01*
X11506200Y7772400D01*
X17513300D01*
X17780000Y7505700D01*
Y7493000D02*
Y7505700D01*
D39*
X13535100Y7150400D02*
D03*
X12957100D02*
D03*
D40*
X12814101Y7100400D02*
D03*
X13678101D02*
D03*
D41*
X12814101Y7518400D02*
D03*
X13678101D02*
D03*
D42*
X17472600Y4241800D02*
D03*
D43*
X17382600Y5066800D02*
D03*
Y3416800D02*
D03*
D44*
X16704601Y5066800D02*
D03*
Y3416800D02*
D03*
D45*
X14173199Y3873500D02*
D03*
X14605000Y3924300D02*
D03*
X14770100Y3822700D02*
D03*
X14303400Y3819500D02*
D03*
X12585700Y4406900D02*
D03*
X12261850Y4565650D02*
D03*
X16040100Y3022600D02*
D03*
X13284200Y2882900D02*
D03*
X13309599Y5969000D02*
D03*
X14503400Y6604000D02*
D03*
Y6680200D02*
D03*
X14363699Y5105400D02*
D03*
X14401801Y5067300D02*
D03*
X12687300Y6858000D02*
D03*
Y6604000D02*
D03*
X14287500Y6438900D02*
D03*
X17132300Y6337300D02*
D03*
Y5397500D02*
D03*
X12128500Y6248400D02*
D03*
X11963400Y6286500D02*
D03*
X11722100Y5054600D02*
D03*
X11709400Y4229100D02*
D03*
X12941299Y3949700D02*
D03*
X13747701Y3600400D02*
D03*
X13423900Y5283200D02*
D03*
Y5549900D02*
D03*
X12484100Y5257800D02*
D03*
X11899900Y6680200D02*
D03*
X11963400Y5384095D02*
D03*
X12407900Y3022600D02*
D03*
X11874500Y5435600D02*
D03*
X15989301Y6781800D02*
D03*
X14478000D02*
D03*
X14947900Y3390900D02*
D03*
X16078200Y5994400D02*
D03*
X15214600Y5575300D02*
D03*
X15697200Y6362700D02*
D03*
X15074899Y5528113D02*
D03*
X13216100Y7169063D02*
D03*
X12496800Y5434895D02*
D03*
X12464697Y5467703D02*
D03*
X13093700Y6756400D02*
D03*
X13125803Y6724297D02*
D03*
X12928600Y5702300D02*
D03*
X12603000Y5156200D02*
D03*
X13271500Y7175500D02*
D03*
X13347701Y4279900D02*
D03*
Y4178300D02*
D03*
X11645900Y5118100D02*
D03*
X11798300Y5041900D02*
D03*
X12547600Y5156200D02*
D03*
X12915900Y5600700D02*
D03*
X13296899Y5003800D02*
D03*
X13436600Y4889500D02*
D03*
X16306799Y6591300D02*
D03*
X16205200Y6680200D02*
D03*
X16116299Y5232400D02*
D03*
X15988699Y5155600D02*
D03*
X15100301Y5981700D02*
D03*
X14998700Y5575300D02*
D03*
X15881703Y4121503D02*
D03*
X15849600Y4089400D02*
D03*
X14953897Y4069997D02*
D03*
X14986000Y4102100D02*
D03*
D46*
X11836400Y7454900D02*
D03*
X11912600Y2908300D02*
D03*
X17272000Y2882900D02*
D03*
Y7429500D02*
D03*
%TF.MD5,022d3f903a8d638a4f1ea7a47d9e52c6*%
M02*
