%TF.GenerationSoftware,Altium Limited,Altium Designer,23.4.1 (23)*%
G04 Layer_Physical_Order=2*
G04 Layer_Color=16711680*
%FSLAX45Y45*%
%MOMM*%
%TF.SameCoordinates,1140DA37-B3DB-4B23-8321-DC1501029C55*%
%TF.FilePolarity,Positive*%
%TF.FileFunction,Copper,L2,Bot,Signal*%
%TF.Part,Single*%
G01*
G75*
%TA.AperFunction,Conductor*%
%ADD35C,0.20000*%
%ADD36C,0.40000*%
%ADD37C,0.30000*%
%TA.AperFunction,ComponentPad*%
%ADD39C,0.65000*%
%ADD40O,1.00000X2.10000*%
G04:AMPARAMS|DCode=41|XSize=1.8mm|YSize=1mm|CornerRadius=0.25mm|HoleSize=0mm|Usage=FLASHONLY|Rotation=270.000|XOffset=0mm|YOffset=0mm|HoleType=Round|Shape=RoundedRectangle|*
%AMROUNDEDRECTD41*
21,1,1.80000,0.50000,0,0,270.0*
21,1,1.30000,1.00000,0,0,270.0*
1,1,0.50000,-0.25000,-0.65000*
1,1,0.50000,-0.25000,0.65000*
1,1,0.50000,0.25000,0.65000*
1,1,0.50000,0.25000,-0.65000*
%
%ADD41ROUNDEDRECTD41*%
%ADD42C,1.40000*%
G04:AMPARAMS|DCode=43|XSize=1.2mm|YSize=2.3mm|CornerRadius=0.6mm|HoleSize=0mm|Usage=FLASHONLY|Rotation=90.000|XOffset=0mm|YOffset=0mm|HoleType=Round|Shape=RoundedRectangle|*
%AMROUNDEDRECTD43*
21,1,1.20000,1.10000,0,0,90.0*
21,1,0.00000,2.30000,0,0,90.0*
1,1,1.20000,0.55000,0.00000*
1,1,1.20000,0.55000,0.00000*
1,1,1.20000,-0.55000,0.00000*
1,1,1.20000,-0.55000,0.00000*
%
%ADD43ROUNDEDRECTD43*%
G04:AMPARAMS|DCode=44|XSize=1.2mm|YSize=2.8mm|CornerRadius=0.6mm|HoleSize=0mm|Usage=FLASHONLY|Rotation=90.000|XOffset=0mm|YOffset=0mm|HoleType=Round|Shape=RoundedRectangle|*
%AMROUNDEDRECTD44*
21,1,1.20000,1.60000,0,0,90.0*
21,1,0.00000,2.80000,0,0,90.0*
1,1,1.20000,0.80000,0.00000*
1,1,1.20000,0.80000,0.00000*
1,1,1.20000,-0.80000,0.00000*
1,1,1.20000,-0.80000,0.00000*
%
%ADD44ROUNDEDRECTD44*%
%TA.AperFunction,ViaPad*%
%ADD45C,0.25000*%
%ADD46C,3.00000*%
D35*
X14173199Y3873500D02*
X14224001Y3924300D01*
X14605000D01*
X14307953Y3822700D02*
X14770100D01*
X14304753Y3819500D02*
X14307953Y3822700D01*
X14303400Y3819500D02*
X14304753D01*
X14401801Y5067300D02*
X14503400Y5168900D01*
Y6604000D01*
X14363699Y5105400D02*
Y6540500D01*
X14503400Y6680200D01*
X13747701Y5899100D02*
X14287500Y6438900D01*
X12001500Y6248400D02*
X12128500D01*
X11963400Y6286500D02*
X12001500Y6248400D01*
X11963400Y6286500D02*
Y6616700D01*
Y5384095D02*
Y6286500D01*
X12001500Y4229100D02*
X12661900D01*
X11709400D02*
X12001500D01*
X11722100Y4508500D02*
X12001500Y4229100D01*
X11722100Y4508500D02*
Y5054600D01*
X11480800Y3975100D02*
X12065000Y3390900D01*
X11480800Y5245100D02*
X11671300Y5435600D01*
X11480800Y3975100D02*
Y5245100D01*
X12661900Y4229100D02*
X12941299Y3949700D01*
X13747701Y3600400D02*
Y5899100D01*
X11899900Y6680200D02*
X11963400Y6616700D01*
Y5384095D02*
X12357805D01*
X12484100Y5257800D01*
X11671300Y5435600D02*
X11874500D01*
X12065000Y3390900D02*
X14947900D01*
X15074899Y5528113D02*
X15611913D01*
X16078200Y5994400D01*
X15214600Y5575300D02*
X15697200Y6057900D01*
Y6362700D01*
X12510097Y6108592D02*
X13125803Y6724297D01*
X12496800Y5435600D02*
X12510097Y5448897D01*
Y6108592D01*
X12496800Y5434895D02*
Y5435600D01*
X12464697Y6127397D02*
X13093700Y6756400D01*
X12464697Y5467703D02*
Y6127397D01*
X13296899Y5003800D02*
Y5334000D01*
X12928600Y5702300D02*
X13296899Y5334000D01*
X11798300Y5041900D02*
X12484100D01*
X13347701Y4178300D01*
X11645900Y5118100D02*
X12509500D01*
X13347701Y4279900D01*
X12915900Y5600700D02*
X13182600Y5334000D01*
Y4953000D02*
Y5334000D01*
Y4953000D02*
X13246100Y4889500D01*
X13436600D01*
X16306799Y5422900D02*
Y6591300D01*
X16205200Y6680200D02*
X16217900Y6667500D01*
X15988699Y5269900D02*
X16217900Y5499100D01*
Y6667500D01*
X15988699Y5155600D02*
Y5269900D01*
X16116299Y5232400D02*
X16306799Y5422900D01*
X14998700Y5575300D02*
Y5880100D01*
X15100301Y5981700D01*
X15807098Y4131901D02*
X15849600Y4089400D01*
X15825903Y4177301D02*
X15881703Y4121503D01*
X15345651Y4072048D02*
X15450905Y4177301D01*
X15469710Y4131901D02*
X15807098D01*
X14986000Y4102100D02*
X15016052Y4072048D01*
X15345651D01*
X15364458Y4026648D02*
X15469710Y4131901D01*
X14997247Y4026648D02*
X15364458D01*
X14953897Y4069997D02*
X14997247Y4026648D01*
X15450905Y4177301D02*
X15825903D01*
D36*
X12261850Y4565650D02*
X12426950D01*
X12585700Y4406900D01*
X16040100Y3022600D02*
X17114716D01*
X17254416Y2882900D01*
X17272000D01*
X14986000D02*
X15113000Y3009900D01*
X13284200Y2882900D02*
X14986000D01*
X14846300Y3759200D02*
X15113000Y3492500D01*
Y3009900D02*
Y3492500D01*
X14869733Y4330700D02*
X16189922D01*
X14846300Y4307268D02*
X14869733Y4330700D01*
X14846300Y3759200D02*
Y4307268D01*
X17132300Y5273079D02*
Y5397500D01*
X16189922Y4330700D02*
X17132300Y5273079D01*
X13309599Y5969000D02*
X14300200Y6959600D01*
X16649699D01*
X16664882Y6974782D01*
X16698018D01*
X17132300Y6540500D01*
Y6337300D02*
Y6540500D01*
X12687300Y6604000D02*
Y6858000D01*
X17132300Y5397500D02*
Y6337300D01*
X13423900Y5283200D02*
Y5549900D01*
X12293600Y2908300D02*
X12407900Y3022600D01*
X11912600Y2908300D02*
X12293600D01*
X14478000Y6781800D02*
X15989301D01*
D37*
X12560497Y5343371D02*
Y5550097D01*
X13216100Y6205700D01*
Y7169063D01*
X12547600Y5330473D02*
X12560497Y5343371D01*
X12615897Y5320423D02*
Y5527150D01*
X12603000Y5307526D02*
X12615897Y5320423D01*
Y5527150D02*
X13271500Y6182753D01*
X12603000Y5156200D02*
Y5307526D01*
X12547600Y5156200D02*
Y5330473D01*
X13271500Y6182753D02*
Y7175500D01*
D39*
X13535100Y7150400D02*
D03*
X12957100D02*
D03*
D40*
X12814101Y7100400D02*
D03*
X13678101D02*
D03*
D41*
X12814101Y7518400D02*
D03*
X13678101D02*
D03*
D42*
X17472600Y4241800D02*
D03*
D43*
X17382600Y5066800D02*
D03*
Y3416800D02*
D03*
D44*
X16704601Y5066800D02*
D03*
Y3416800D02*
D03*
D45*
X14173199Y3873500D02*
D03*
X14605000Y3924300D02*
D03*
X14770100Y3822700D02*
D03*
X14303400Y3819500D02*
D03*
X12585700Y4406900D02*
D03*
X12261850Y4565650D02*
D03*
X16040100Y3022600D02*
D03*
X13284200Y2882900D02*
D03*
X13309599Y5969000D02*
D03*
X14503400Y6604000D02*
D03*
Y6680200D02*
D03*
X14363699Y5105400D02*
D03*
X14401801Y5067300D02*
D03*
X12687300Y6858000D02*
D03*
Y6604000D02*
D03*
X14287500Y6438900D02*
D03*
X17132300Y6337300D02*
D03*
Y5397500D02*
D03*
X12128500Y6248400D02*
D03*
X11963400Y6286500D02*
D03*
X11722100Y5054600D02*
D03*
X11709400Y4229100D02*
D03*
X12941299Y3949700D02*
D03*
X13747701Y3600400D02*
D03*
X13423900Y5283200D02*
D03*
Y5549900D02*
D03*
X12484100Y5257800D02*
D03*
X11899900Y6680200D02*
D03*
X11963400Y5384095D02*
D03*
X12407900Y3022600D02*
D03*
X11874500Y5435600D02*
D03*
X15989301Y6781800D02*
D03*
X14478000D02*
D03*
X14947900Y3390900D02*
D03*
X16078200Y5994400D02*
D03*
X15214600Y5575300D02*
D03*
X15697200Y6362700D02*
D03*
X15074899Y5528113D02*
D03*
X13216100Y7169063D02*
D03*
X12496800Y5434895D02*
D03*
X12464697Y5467703D02*
D03*
X13093700Y6756400D02*
D03*
X13125803Y6724297D02*
D03*
X12928600Y5702300D02*
D03*
X12603000Y5156200D02*
D03*
X13271500Y7175500D02*
D03*
X13347701Y4279900D02*
D03*
Y4178300D02*
D03*
X11645900Y5118100D02*
D03*
X11798300Y5041900D02*
D03*
X12547600Y5156200D02*
D03*
X12915900Y5600700D02*
D03*
X13296899Y5003800D02*
D03*
X13436600Y4889500D02*
D03*
X16306799Y6591300D02*
D03*
X16205200Y6680200D02*
D03*
X16116299Y5232400D02*
D03*
X15988699Y5155600D02*
D03*
X15100301Y5981700D02*
D03*
X14998700Y5575300D02*
D03*
X15881703Y4121503D02*
D03*
X15849600Y4089400D02*
D03*
X14953897Y4069997D02*
D03*
X14986000Y4102100D02*
D03*
D46*
X11836400Y7454900D02*
D03*
X11912600Y2908300D02*
D03*
X17272000Y2882900D02*
D03*
Y7429500D02*
D03*
%TF.MD5,3318f290d05c402d434ed52c39bac3ee*%
M02*
