%TF.GenerationSoftware,Altium Limited,Altium Designer,23.4.1 (23)*%
G04 Layer_Color=8388736*
%FSLAX45Y45*%
%MOMM*%
%TF.SameCoordinates,1140DA37-B3DB-4B23-8321-DC1501029C55*%
%TF.FilePolarity,Negative*%
%TF.FileFunction,Soldermask,Top*%
%TF.Part,Single*%
G01*
G75*
%TA.AperFunction,SMDPad,CuDef*%
%ADD19R,0.75814X0.81213*%
G04:AMPARAMS|DCode=20|XSize=1.00429mm|YSize=3.18213mm|CornerRadius=0.43687mm|HoleSize=0mm|Usage=FLASHONLY|Rotation=0.000|XOffset=0mm|YOffset=0mm|HoleType=Round|Shape=RoundedRectangle|*
%AMROUNDEDRECTD20*
21,1,1.00429,2.30840,0,0,0.0*
21,1,0.13056,3.18213,0,0,0.0*
1,1,0.87373,0.06528,-1.15420*
1,1,0.87373,-0.06528,-1.15420*
1,1,0.87373,-0.06528,1.15420*
1,1,0.87373,0.06528,1.15420*
%
%ADD20ROUNDEDRECTD20*%
G04:AMPARAMS|DCode=21|XSize=1.00429mm|YSize=0.87213mm|CornerRadius=0.43606mm|HoleSize=0mm|Usage=FLASHONLY|Rotation=0.000|XOffset=0mm|YOffset=0mm|HoleType=Round|Shape=RoundedRectangle|*
%AMROUNDEDRECTD21*
21,1,1.00429,0.00000,0,0,0.0*
21,1,0.13216,0.87213,0,0,0.0*
1,1,0.87213,0.06608,0.00000*
1,1,0.87213,-0.06608,0.00000*
1,1,0.87213,-0.06608,0.00000*
1,1,0.87213,0.06608,0.00000*
%
%ADD21ROUNDEDRECTD21*%
%ADD22R,1.00429X0.87213*%
%ADD24R,0.80000X0.80000*%
%ADD25R,0.80000X0.80000*%
%ADD26R,1.05822X1.30606*%
%ADD27R,1.55000X0.55000*%
%ADD28R,0.55000X1.55000*%
%ADD29R,0.81213X0.75814*%
%ADD30R,1.30606X1.05822*%
%TA.AperFunction,ConnectorPad*%
%ADD32R,2.40000X0.28000*%
%TA.AperFunction,ComponentPad*%
%ADD42C,1.40000*%
G04:AMPARAMS|DCode=43|XSize=1.2mm|YSize=2.3mm|CornerRadius=0.6mm|HoleSize=0mm|Usage=FLASHONLY|Rotation=90.000|XOffset=0mm|YOffset=0mm|HoleType=Round|Shape=RoundedRectangle|*
%AMROUNDEDRECTD43*
21,1,1.20000,1.10000,0,0,90.0*
21,1,0.00000,2.30000,0,0,90.0*
1,1,1.20000,0.55000,0.00000*
1,1,1.20000,0.55000,0.00000*
1,1,1.20000,-0.55000,0.00000*
1,1,1.20000,-0.55000,0.00000*
%
%ADD43ROUNDEDRECTD43*%
G04:AMPARAMS|DCode=44|XSize=1.2mm|YSize=2.8mm|CornerRadius=0.6mm|HoleSize=0mm|Usage=FLASHONLY|Rotation=90.000|XOffset=0mm|YOffset=0mm|HoleType=Round|Shape=RoundedRectangle|*
%AMROUNDEDRECTD44*
21,1,1.20000,1.60000,0,0,90.0*
21,1,0.00000,2.80000,0,0,90.0*
1,1,1.20000,0.80000,0.00000*
1,1,1.20000,0.80000,0.00000*
1,1,1.20000,-0.80000,0.00000*
1,1,1.20000,-0.80000,0.00000*
%
%ADD44ROUNDEDRECTD44*%
%TA.AperFunction,SMDPad,CuDef*%
%ADD50R,0.40000X2.30000*%
%ADD51R,2.30000X0.40000*%
%ADD52R,0.90320X0.90320*%
%TA.AperFunction,BGAPad,CuDef*%
%ADD53R,1.65320X1.65320*%
%TA.AperFunction,SMDPad,CuDef*%
%ADD54R,0.60320X1.00320*%
%ADD55R,1.00320X0.60320*%
%TA.AperFunction,ConnectorPad*%
%ADD56R,0.40000X1.25000*%
%ADD57R,0.70000X1.25000*%
%TA.AperFunction,BGAPad,CuDef*%
%ADD58R,1.80320X1.80320*%
%TA.AperFunction,SMDPad,CuDef*%
%ADD59R,1.65320X1.40320*%
%TA.AperFunction,BGAPad,CuDef*%
%ADD60R,1.80320X1.80320*%
%TA.AperFunction,SMDPad,CuDef*%
%ADD61R,1.40320X1.65320*%
%TA.AperFunction,ComponentPad*%
%ADD62C,0.85320*%
%ADD63O,1.20320X2.30320*%
G04:AMPARAMS|DCode=64|XSize=2.0032mm|YSize=1.2032mm|CornerRadius=0.3516mm|HoleSize=0mm|Usage=FLASHONLY|Rotation=270.000|XOffset=0mm|YOffset=0mm|HoleType=Round|Shape=RoundedRectangle|*
%AMROUNDEDRECTD64*
21,1,2.00320,0.50000,0,0,270.0*
21,1,1.30000,1.20320,0,0,270.0*
1,1,0.70320,-0.25000,-0.65000*
1,1,0.70320,-0.25000,0.65000*
1,1,0.70320,0.25000,0.65000*
1,1,0.70320,0.25000,-0.65000*
%
%ADD64ROUNDEDRECTD64*%
%TA.AperFunction,ViaPad*%
%ADD65C,0.45320*%
%ADD66C,3.20320*%
G36*
X15143401Y6712000D02*
X14978400D01*
Y6811000D01*
X15044400Y6877000D01*
X15143401D01*
Y6712000D01*
D02*
G37*
D19*
X16472701Y6210300D02*
D03*
X16598099D02*
D03*
X13920001Y5626100D02*
D03*
X14045399D02*
D03*
X16598099Y6413500D02*
D03*
X16472701D02*
D03*
X12713501Y5257800D02*
D03*
X12838899D02*
D03*
X12713501Y5473700D02*
D03*
X12838899D02*
D03*
D20*
X13689900Y6197600D02*
D03*
X17525301Y5626100D02*
D03*
X12319000Y3771900D02*
D03*
X17499899Y6591300D02*
D03*
X13702600Y3022600D02*
D03*
D21*
X13030901Y5968600D02*
D03*
Y6197600D02*
D03*
X16866299Y5397100D02*
D03*
Y5626100D02*
D03*
X11660000Y3542900D02*
D03*
Y3771900D02*
D03*
X16840900Y6362300D02*
D03*
Y6591300D02*
D03*
X13043600Y2793600D02*
D03*
Y3022600D02*
D03*
D22*
X13030901Y6426600D02*
D03*
X16866299Y5855100D02*
D03*
X11660000Y4000900D02*
D03*
X16840900Y6820300D02*
D03*
X13043600Y3251600D02*
D03*
D24*
X14084300Y6629500D02*
D03*
Y6794500D02*
D03*
X16128999Y6775500D02*
D03*
Y6940500D02*
D03*
D25*
X14395399Y2895600D02*
D03*
X14230400D02*
D03*
D26*
X16268700Y6403616D02*
D03*
Y6248400D02*
D03*
X13055600Y5294492D02*
D03*
Y5449708D02*
D03*
D27*
X12344400Y5951200D02*
D03*
Y5871200D02*
D03*
Y5791200D02*
D03*
Y5711200D02*
D03*
Y5631200D02*
D03*
Y5551200D02*
D03*
Y5471200D02*
D03*
Y5391200D02*
D03*
X11504400D02*
D03*
Y5471200D02*
D03*
Y5551200D02*
D03*
Y5631200D02*
D03*
Y5711200D02*
D03*
Y5791200D02*
D03*
Y5871200D02*
D03*
Y5951200D02*
D03*
D28*
X12204400Y5251200D02*
D03*
X12124400D02*
D03*
X12044400D02*
D03*
X11964400D02*
D03*
X11884400D02*
D03*
X11804400D02*
D03*
X11724400D02*
D03*
X11644400D02*
D03*
Y6091200D02*
D03*
X11724400D02*
D03*
X11804400D02*
D03*
X11884400D02*
D03*
X11964400D02*
D03*
X12044400D02*
D03*
X12124400D02*
D03*
X12204400D02*
D03*
D29*
X15900400Y3125801D02*
D03*
Y3251200D02*
D03*
X15684500Y3125001D02*
D03*
Y3250399D02*
D03*
X15468600Y3125801D02*
D03*
Y3251200D02*
D03*
X15252699Y3125801D02*
D03*
Y3251200D02*
D03*
X15036800Y3125801D02*
D03*
Y3251200D02*
D03*
X14820900Y3125801D02*
D03*
Y3251200D02*
D03*
X12103100Y4331501D02*
D03*
Y4456899D02*
D03*
X11874500Y4331501D02*
D03*
Y4456899D02*
D03*
X15646400Y5041099D02*
D03*
Y4915701D02*
D03*
D30*
X15863708Y3467100D02*
D03*
X15708492D02*
D03*
X12066408Y4673600D02*
D03*
X11911192D02*
D03*
D32*
X16444600Y3841800D02*
D03*
Y3891800D02*
D03*
Y3941800D02*
D03*
Y3991800D02*
D03*
Y4041800D02*
D03*
Y4091800D02*
D03*
Y4141800D02*
D03*
Y4191800D02*
D03*
Y4241800D02*
D03*
Y4291800D02*
D03*
Y4341800D02*
D03*
Y4391800D02*
D03*
Y4441800D02*
D03*
Y4491800D02*
D03*
Y4541800D02*
D03*
Y4591800D02*
D03*
Y4641800D02*
D03*
Y4691800D02*
D03*
Y4741800D02*
D03*
Y4791800D02*
D03*
D42*
X17472600Y4241800D02*
D03*
D43*
X17382600Y5066800D02*
D03*
Y3416800D02*
D03*
D44*
X16704601Y5066800D02*
D03*
Y3416800D02*
D03*
D50*
X13903400Y3600400D02*
D03*
X13953400D02*
D03*
X14003400D02*
D03*
X14053400D02*
D03*
X14103400D02*
D03*
X14153400D02*
D03*
X14203400D02*
D03*
X14253400D02*
D03*
X14303400D02*
D03*
X14353400D02*
D03*
X14403400D02*
D03*
X14453400D02*
D03*
X14503400D02*
D03*
X14553400D02*
D03*
X14603400D02*
D03*
X14653400D02*
D03*
X14703400D02*
D03*
X14753400D02*
D03*
X14803400D02*
D03*
X14853400D02*
D03*
X14903400D02*
D03*
X14953400D02*
D03*
X15003400D02*
D03*
X15053400D02*
D03*
X15103400D02*
D03*
Y5340400D02*
D03*
X15053400D02*
D03*
X15003400D02*
D03*
X14953400D02*
D03*
X14903400D02*
D03*
X14853400D02*
D03*
X14803400D02*
D03*
X14753400D02*
D03*
X14703400D02*
D03*
X14653400D02*
D03*
X14603400D02*
D03*
X14553400D02*
D03*
X14503400D02*
D03*
X14453400D02*
D03*
X14403400D02*
D03*
X14353400D02*
D03*
X14303400D02*
D03*
X14253400D02*
D03*
X14203400D02*
D03*
X14153400D02*
D03*
X14103400D02*
D03*
X14053400D02*
D03*
X14003400D02*
D03*
X13953400D02*
D03*
X13903400D02*
D03*
D51*
X15373399Y3870400D02*
D03*
Y3920400D02*
D03*
Y3970400D02*
D03*
Y4020400D02*
D03*
Y4070400D02*
D03*
Y4120400D02*
D03*
Y4170400D02*
D03*
Y4220400D02*
D03*
Y4270400D02*
D03*
Y4320400D02*
D03*
Y4370400D02*
D03*
Y4420400D02*
D03*
Y4470400D02*
D03*
Y4520400D02*
D03*
Y4570400D02*
D03*
Y4620400D02*
D03*
Y4670400D02*
D03*
Y4720400D02*
D03*
Y4770400D02*
D03*
Y4820400D02*
D03*
Y4870400D02*
D03*
Y4920400D02*
D03*
Y4970400D02*
D03*
Y5020400D02*
D03*
Y5070400D02*
D03*
X13633400D02*
D03*
Y5020400D02*
D03*
Y4970400D02*
D03*
Y4920400D02*
D03*
Y4870400D02*
D03*
Y4820400D02*
D03*
Y4770400D02*
D03*
Y4720400D02*
D03*
Y4670400D02*
D03*
Y4620400D02*
D03*
Y4570400D02*
D03*
Y4520400D02*
D03*
Y4470400D02*
D03*
Y4420400D02*
D03*
Y4370400D02*
D03*
Y4320400D02*
D03*
Y4270400D02*
D03*
Y4220400D02*
D03*
Y4170400D02*
D03*
Y4120400D02*
D03*
Y4070400D02*
D03*
Y4020400D02*
D03*
Y3970400D02*
D03*
Y3920400D02*
D03*
Y3870400D02*
D03*
D52*
X15853400Y7092000D02*
D03*
Y6102000D02*
D03*
X14663400D02*
D03*
Y7092000D02*
D03*
D53*
X15455901Y6597000D02*
D03*
Y6399500D02*
D03*
X15258400D02*
D03*
X15060899D02*
D03*
Y6597000D02*
D03*
X15258400Y6794500D02*
D03*
X15455901D02*
D03*
X15258400Y6597000D02*
D03*
D54*
X14778400Y7087000D02*
D03*
X14858400D02*
D03*
X14938400D02*
D03*
X15018401D02*
D03*
X15098399D02*
D03*
X15178400D02*
D03*
X15258400D02*
D03*
X15338400D02*
D03*
X15418401D02*
D03*
X15498399D02*
D03*
X15578400D02*
D03*
X15658400D02*
D03*
X15738400D02*
D03*
Y6107000D02*
D03*
X15658400D02*
D03*
X15578400D02*
D03*
X15498399D02*
D03*
X15418401D02*
D03*
X15338400D02*
D03*
X15258400D02*
D03*
X15178400D02*
D03*
X15098399D02*
D03*
X15018401D02*
D03*
X14938400D02*
D03*
X14858400D02*
D03*
X14778400D02*
D03*
D55*
X15848399Y6997000D02*
D03*
Y6917000D02*
D03*
Y6837000D02*
D03*
Y6757000D02*
D03*
Y6677000D02*
D03*
Y6597000D02*
D03*
Y6517000D02*
D03*
Y6437000D02*
D03*
Y6357000D02*
D03*
Y6277000D02*
D03*
Y6197000D02*
D03*
X14668401D02*
D03*
Y6277000D02*
D03*
Y6357000D02*
D03*
Y6437000D02*
D03*
Y6517000D02*
D03*
Y6597000D02*
D03*
Y6677000D02*
D03*
Y6757000D02*
D03*
Y6837000D02*
D03*
Y6917000D02*
D03*
Y6997000D02*
D03*
D56*
X13421100Y7042900D02*
D03*
X13371100D02*
D03*
X13321100D02*
D03*
X13071100D02*
D03*
X13121100D02*
D03*
X13171100D02*
D03*
X13271100D02*
D03*
X13221100D02*
D03*
D57*
X13006100D02*
D03*
X13486099D02*
D03*
X12926100D02*
D03*
X13566100D02*
D03*
D58*
X12039600Y6857000D02*
D03*
Y6477000D02*
D03*
X12293600Y6857000D02*
D03*
X11785600D02*
D03*
Y6477000D02*
D03*
X12293600D02*
D03*
D59*
X14097000Y7088200D02*
D03*
Y7288200D02*
D03*
X16154401Y7215200D02*
D03*
Y7415200D02*
D03*
D60*
X13156700Y4140200D02*
D03*
X12776700D02*
D03*
X13156700Y3886200D02*
D03*
Y4394200D02*
D03*
X12776700D02*
D03*
Y3886200D02*
D03*
D61*
X14201801Y3124200D02*
D03*
X14401801D02*
D03*
D62*
X13535100Y7150400D02*
D03*
X12957100D02*
D03*
D63*
X12814101Y7100400D02*
D03*
X13678101D02*
D03*
D64*
X12814101Y7518400D02*
D03*
X13678101D02*
D03*
D65*
X14173199Y3873500D02*
D03*
X14605000Y3924300D02*
D03*
X14770100Y3822700D02*
D03*
X14303400Y3819500D02*
D03*
X12585700Y4406900D02*
D03*
X12261850Y4565650D02*
D03*
X16040100Y3022600D02*
D03*
X13284200Y2882900D02*
D03*
X13309599Y5969000D02*
D03*
X14503400Y6604000D02*
D03*
Y6680200D02*
D03*
X14363699Y5105400D02*
D03*
X14401801Y5067300D02*
D03*
X12687300Y6858000D02*
D03*
Y6604000D02*
D03*
X14287500Y6438900D02*
D03*
X17132300Y6337300D02*
D03*
Y5397500D02*
D03*
X12128500Y6248400D02*
D03*
X11963400Y6286500D02*
D03*
X11722100Y5054600D02*
D03*
X11709400Y4229100D02*
D03*
X12941299Y3949700D02*
D03*
X13747701Y3600400D02*
D03*
X13423900Y5283200D02*
D03*
Y5549900D02*
D03*
X12484100Y5257800D02*
D03*
X11899900Y6680200D02*
D03*
X11963400Y5384095D02*
D03*
X12407900Y3022600D02*
D03*
X11874500Y5435600D02*
D03*
X15989301Y6781800D02*
D03*
X14478000D02*
D03*
X14947900Y3390900D02*
D03*
X16078200Y5994400D02*
D03*
X15214600Y5575300D02*
D03*
X15697200Y6362700D02*
D03*
X15074899Y5528113D02*
D03*
X13216100Y7169063D02*
D03*
X12496800Y5434895D02*
D03*
X12464697Y5467703D02*
D03*
X13093700Y6756400D02*
D03*
X13125803Y6724297D02*
D03*
X12928600Y5702300D02*
D03*
X12603000Y5156200D02*
D03*
X13271500Y7175500D02*
D03*
X13347701Y4279900D02*
D03*
Y4178300D02*
D03*
X11645900Y5118100D02*
D03*
X11798300Y5041900D02*
D03*
X12547600Y5156200D02*
D03*
X12915900Y5600700D02*
D03*
X13296899Y5003800D02*
D03*
X13436600Y4889500D02*
D03*
X16306799Y6591300D02*
D03*
X16205200Y6680200D02*
D03*
X16116299Y5232400D02*
D03*
X15988699Y5155600D02*
D03*
X15100301Y5981700D02*
D03*
X14998700Y5575300D02*
D03*
X15881703Y4121503D02*
D03*
X15849600Y4089400D02*
D03*
X14953897Y4069997D02*
D03*
X14986000Y4102100D02*
D03*
D66*
X11836400Y7454900D02*
D03*
X11912600Y2908300D02*
D03*
X17272000Y2882900D02*
D03*
Y7429500D02*
D03*
%TF.MD5,7280ed00755fcf0e8129cb068fe9c3f0*%
M02*
