%TF.GenerationSoftware,Altium Limited,Altium Designer,23.4.1 (23)*%
G04 Layer_Color=0*
%FSLAX45Y45*%
%MOMM*%
%TF.SameCoordinates,1140DA37-B3DB-4B23-8321-DC1501029C55*%
%TF.FilePolarity,Positive*%
%TF.FileFunction,Plated,1,2,PTH,Drill*%
%TF.Part,Single*%
G01*
G75*
%TA.AperFunction,ComponentDrill*%
%ADD70O,0.60000X1.70000*%
%ADD71O,0.60000X1.40000*%
%ADD72O,1.70000X0.60000*%
%ADD73O,2.20000X0.60000*%
%TA.AperFunction,ViaDrill,NotFilled*%
%ADD74C,0.20000*%
%ADD75C,2.50000*%
D70*
X12814101Y7100400D02*
D03*
X13678101D02*
D03*
D71*
X12814101Y7518400D02*
D03*
X13678101D02*
D03*
D72*
X17382600Y5066800D02*
D03*
Y3416800D02*
D03*
D73*
X16704601Y5066800D02*
D03*
Y3416800D02*
D03*
D74*
X14173199Y3873500D02*
D03*
X14605000Y3924300D02*
D03*
X14770100Y3822700D02*
D03*
X14303400Y3819500D02*
D03*
X12585700Y4406900D02*
D03*
X12261850Y4565650D02*
D03*
X16040100Y3022600D02*
D03*
X13284200Y2882900D02*
D03*
X13309599Y5969000D02*
D03*
X14503400Y6604000D02*
D03*
Y6680200D02*
D03*
X14363699Y5105400D02*
D03*
X14401801Y5067300D02*
D03*
X12687300Y6858000D02*
D03*
Y6604000D02*
D03*
X14287500Y6438900D02*
D03*
X17132300Y6337300D02*
D03*
Y5397500D02*
D03*
X12128500Y6248400D02*
D03*
X11963400Y6286500D02*
D03*
X11722100Y5054600D02*
D03*
X11709400Y4229100D02*
D03*
X12941299Y3949700D02*
D03*
X13747701Y3600400D02*
D03*
X13423900Y5283200D02*
D03*
Y5549900D02*
D03*
X12484100Y5257800D02*
D03*
X11899900Y6680200D02*
D03*
X11963400Y5384095D02*
D03*
X12407900Y3022600D02*
D03*
X11874500Y5435600D02*
D03*
X15989301Y6781800D02*
D03*
X14478000D02*
D03*
X14947900Y3390900D02*
D03*
X16078200Y5994400D02*
D03*
X15214600Y5575300D02*
D03*
X15697200Y6362700D02*
D03*
X15074899Y5528113D02*
D03*
X13216100Y7169063D02*
D03*
X12496800Y5434895D02*
D03*
X12464697Y5467703D02*
D03*
X13093700Y6756400D02*
D03*
X13125803Y6724297D02*
D03*
X12928600Y5702300D02*
D03*
X12603000Y5156200D02*
D03*
X13271500Y7175500D02*
D03*
X13347701Y4279900D02*
D03*
Y4178300D02*
D03*
X11645900Y5118100D02*
D03*
X11798300Y5041900D02*
D03*
X12547600Y5156200D02*
D03*
X12915900Y5600700D02*
D03*
X13296899Y5003800D02*
D03*
X13436600Y4889500D02*
D03*
X16306799Y6591300D02*
D03*
X16205200Y6680200D02*
D03*
X16116299Y5232400D02*
D03*
X15988699Y5155600D02*
D03*
X15100301Y5981700D02*
D03*
X14998700Y5575300D02*
D03*
X15881703Y4121503D02*
D03*
X15849600Y4089400D02*
D03*
X14953897Y4069997D02*
D03*
X14986000Y4102100D02*
D03*
D75*
X11836400Y7454900D02*
D03*
X11912600Y2908300D02*
D03*
X17272000Y2882900D02*
D03*
Y7429500D02*
D03*
%TF.MD5,14dd07fe9d80c499e6167f48192f5aee*%
M02*
